<?xml version="1.0" encoding="UTF-8" standalone="no" ?>

<!-- ####################################################################

This file was generates automatically via the
IconPacks.Browser (MIT-License).

Visit https://github.com/MahApps/MahApps.Metro.IconPacks and
https://github.com/MahApps/MahApps.Metro.IconPacks/blob/develop/LICENSE
for more information.

~~~~~~~~~~~~~~~~~~~~~~~~~~~~~~~~~~~~~~~~~~~~~~~~~~~~~~~~~~~~~~~~~~~~~~~~~~

Icon-Name: 			CaseLower
Iconpack:			Lucide
Iconpack-Homepage: 	https://github.com/lucide-icons/lucide
Iconpack-License:	https://github.com/lucide-icons/lucide?tab=ISC-1-ov-file#readme

#####################################################################-->

<svg xmlns="http://www.w3.org/2000/svg"
     width="128"
     height="128">
    <path d="M573.4166666666666 748.7083333333334C562.625 746 551.0833333333334 737 546.25 727.5416666666667C541.1666666666666 717.5833333333334 541.125 714.7083333333333 541.5 536.875L541.875 365.625L545.25 358.4166666666668C549.75 348.8333333333334 559.25 339.6666666666667 568.1666666666666 336.3333333333334C586.6666666666666 329.4166666666667 608.6249999999999 336.7500000000001 618.8333333333333 353.25L621.4166666666666 357.4583333333334L632.7083333333334 351.75C698.0416666666666 318.9583333333334 775.25 331.3333333333335 826.4166666666666 382.7916666666667C872.2083333333333 428.9166666666668 887.125 497.5833333333334 864.375 557.9583333333334C847.2499999999999 603.5 812.2083333333333 638.5416666666667 766.125 656.2083333333334C741.9166666666666 665.5 708.8333333333333 668.6666666666667 681.7916666666666 664.3333333333334C667.4583333333333 662.0416666666667 647.4583333333333 655.6666666666667 635.25 649.5C630.3333333333333 647.0416666666667 625.9999999999999 645 625.6666666666666 645C625.2916666666666 645 625 660.625 625 679.6666666666667C624.9583333333334 717.75 624.3749999999999 721.875 617.6666666666666 731.6666666666667C608.3333333333333 745.2083333333334 588.9999999999999 752.625 573.4166666666666 748.7083333333334M271.25 665.4166666666667C249.9583333333333 662.0416666666667 235.4583333333333 657.625 218.5833333333334 649.4166666666667C169.375 625.4166666666667 135.7916666666667 579.6666666666667 126.8333333333333 524.4166666666667C121.6666666666667 492.3750000000001 127.0833333333333 458.25 142.4166666666667 426.8333333333334C170.4583333333334 369.4166666666668 227.5 333.75 291.25 333.75C318.7083333333333 333.75 344.25 339.875 367.375 351.9166666666668L378.125 357.5416666666667L379.9583333333333 354.7083333333334C380.9583333333333 353.1666666666668 384.625 349 388.0833333333333 345.5C408.0833333333333 325.2083333333334 442.2916666666667 331.8333333333334 454.7499999999999 358.4166666666668L458.1249999999999 365.625L458.1249999999999 500L458.1249999999999 634.375L454.7916666666666 641.5C450.7083333333333 650.1666666666666 442.6666666666667 658.5 434.3333333333333 662.5416666666667C425.3333333333333 666.9583333333333 411.9166666666667 667.4166666666667 402 663.7083333333334C394.7916666666667 661 384.4166666666667 652.3333333333334 379.9166666666667 645.2916666666667L378.125 642.4583333333334L367.2916666666667 648.125C353.625 655.25 333.6666666666667 661.8333333333334 318.2083333333333 664.3333333333334C307.375 666.0833333333334 279.4583333333333 666.7083333333334 271.25 665.4166666666667M313.125 580.4166666666667C335.375 574.9166666666667 356.4583333333333 557.4166666666667 366.75 535.9166666666667C384.7083333333333 498.2916666666667 372.0833333333333 453.7083333333334 336.7916666666667 430.0833333333334C322.9583333333333 420.8333333333334 310.625 417.2083333333334 292.5 417.0416666666668C267.5833333333333 416.8333333333334 251.375 423.5833333333334 233.0833333333334 441.8333333333334C224.125 450.7916666666667 220.7916666666667 455.1666666666666 217.0416666666666 462.9166666666666C211.2916666666667 474.875 208.7916666666667 486 208.7916666666667 500C208.7916666666667 523.7083333333334 215.8333333333333 540.8333333333334 232.4583333333333 557.625C247.875 573.2083333333334 262.5 580.5416666666667 281.6666666666667 582.375C292.7916666666667 583.4583333333334 303.375 582.7916666666667 313.125 580.4166666666667M729.3749999999999 580.5C743.2916666666665 577.2083333333334 754.5416666666667 570.5416666666667 766.9166666666666 558.1666666666667C779.6249999999999 545.4583333333333 786.2916666666665 533.875 789.4583333333333 518.9583333333334C791.7083333333334 508.2916666666667 791.7083333333334 491.7083333333334 789.4583333333333 481.0416666666667C786.2916666666665 466.125 779.6249999999999 454.5416666666667 766.9166666666666 441.8333333333334C748.6249999999999 423.5833333333334 732.4166666666666 416.8333333333334 707.5 417.0416666666668C689.375 417.2083333333334 677.0416666666666 420.8333333333334 663.2499999999999 430.0833333333334C612.9166666666666 463.7500000000001 612.3749999999999 535.2083333333334 662.1666666666666 569.25C680.75 581.9583333333334 705.6666666666666 586.125 729.3749999999999 580.5"
          class="Normal"
          transform="matrix(0.17067946623764144,0,0,-0.17067946623764144,-21.323291781687566,156.45232379690583)" />
</svg>