<?xml version="1.0" encoding="UTF-8" standalone="no" ?>

<!-- ####################################################################

This file was generates automatically via the
IconPacks.Browser (MIT-License).

Visit https://github.com/MahApps/MahApps.Metro.IconPacks and
https://github.com/MahApps/MahApps.Metro.IconPacks/blob/develop/LICENSE
for more information.

~~~~~~~~~~~~~~~~~~~~~~~~~~~~~~~~~~~~~~~~~~~~~~~~~~~~~~~~~~~~~~~~~~~~~~~~~~

Icon-Name: 			CaseUpper
Iconpack:			Lucide
Iconpack-Homepage: 	https://github.com/lucide-icons/lucide
Iconpack-License:	https://github.com/lucide-icons/lucide?tab=ISC-1-ov-file#readme

#####################################################################-->

<svg xmlns="http://www.w3.org/2000/svg"
     width="128"
     height="128">
    <path d="M279.125 747.75C270.2083333333333 744.5416666666667 263.1666666666667 739.6666666666667 258.625 733.4166666666667C256.4583333333333 730.5 216.4166666666667 651.4583333333334 169.5416666666667 557.75L84.375 387.4166666666668L84.375 375.25C84.375 363.8333333333334 84.625 362.6666666666668 88.625 355.25C93.5 346.3333333333334 99.0416666666667 341.375 109.5833333333333 336.7083333333334C125.125 329.8333333333334 146.4166666666667 335.1666666666668 156.9166666666667 348.5833333333334C159.4166666666667 351.75 168.4583333333334 368.2916666666668 177 385.3333333333334L192.5416666666667 416.25L291.875 416.25L391.2083333333333 416.25L408.0833333333333 382.625C422.625 353.6666666666667 425.7916666666667 348.2916666666668 430.75 343.9166666666667C451.125 325.9583333333334 483.8333333333333 332.6666666666668 495.8749999999999 357.25C498.8333333333333 363.375 499.3333333333333 365.9166666666668 499.3749999999999 375.2916666666668L499.3749999999999 386.2083333333334L412.9583333333333 559.0416666666667C319 747.0416666666667 323.625 738.7083333333334 309.2083333333333 745.75C300.1666666666667 750.2083333333334 288.1666666666667 751 279.125 747.75M615.1666666666666 748.7083333333334C603.1666666666666 746.25 590.9999999999999 735.5 586.4166666666666 723.25L583.7083333333333 716.0833333333334L584.0416666666666 539.5833333333333L584.375 363.125L587.4166666666666 357.2083333333334C591.25 349.625 599.625 341.25 607.2083333333334 337.4166666666668L613.125 334.375L719.375 334.0416666666667C813.0416666666667 333.7083333333334 826.7916666666666 333.9166666666667 835.6249999999999 335.7083333333334C884 345.4166666666667 920.2916666666666 379.2916666666668 933.2083333333331 426.6250000000001C944.4583333333334 467.9583333333334 932.1249999999998 515 902.2083333333331 544.875L894.2083333333333 552.875L899.5833333333333 562.3333333333334C910.5416666666666 581.5416666666667 914.9583333333331 597.2916666666667 915.875 620.125C916.4166666666666 633.2916666666667 916.0833333333331 639.4583333333333 914.4166666666666 647.625C904.3749999999998 697.2916666666667 870.0833333333334 733.4583333333333 820.625 746.5833333333334C810.9166666666666 749.1666666666667 807.9999999999999 749.25 715.625 749.5C663.3749999999999 749.6666666666667 618.1666666666666 749.2916666666666 615.1666666666666 748.7083333333334M809.3333333333333 662.5833333333333C816.7916666666666 658.9166666666667 825.125 650.875 828.625 644C834.0833333333333 633.3333333333333 834.0416666666666 616.625 828.5833333333333 605.9166666666667C824.625 598.1666666666667 814.8333333333334 589.3333333333334 806.8333333333334 586.3333333333333C800.1249999999999 583.8333333333334 797.6666666666665 583.75 733.0833333333334 583.75L666.25 583.75L666.25 625.0416666666667L666.25 666.2916666666667L734.7083333333333 665.9583333333334L803.1249999999999 665.625L809.3333333333333 662.5833333333333M348.6666666666667 500.9583333333334C348.7083333333333 500.4166666666667 323.1666666666667 500 291.875 500C260.5833333333333 500 235 500.2916666666667 235 500.6250000000001C235 500.9583333333334 247.7916666666667 526.8333333333334 263.4166666666667 558.125L291.875 615L320.25 558.4583333333334C335.8333333333333 527.3333333333334 348.625 501.4583333333334 348.6666666666667 500.9583333333334M830.4166666666666 495.6666666666667C845.7499999999999 487.9166666666667 854.3333333333334 473.2916666666667 853.5416666666666 456.25C852.7916666666665 440.2500000000001 843.9166666666666 427.2083333333334 829 420.2083333333334L821.875 416.8750000000001L744.0416666666666 416.5L666.25 416.125L666.25 458.125L666.25 500.1250000000001L744.6666666666666 499.75L823.1249999999999 499.375L830.4166666666666 495.6666666666667"
          class="Normal"
          transform="matrix(0.15006853849705337,0,0,-0.15006853849705337,-12.662032935688877,145.29515862604714)" />
</svg>