<?xml version="1.0" encoding="UTF-8" standalone="no" ?>

<!-- ####################################################################

This file was generates automatically via the
IconPacks.Browser (MIT-License).

Visit https://github.com/MahApps/MahApps.Metro.IconPacks and
https://github.com/MahApps/MahApps.Metro.IconPacks/blob/develop/LICENSE
for more information.

~~~~~~~~~~~~~~~~~~~~~~~~~~~~~~~~~~~~~~~~~~~~~~~~~~~~~~~~~~~~~~~~~~~~~~~~~~

Icon-Name: 			Numeric2BoxOutline
Iconpack:			Material
Iconpack-Homepage: 	https://materialdesignicons.com/
Iconpack-License:	https://github.com/Templarian/MaterialDesign/blob/master/LICENSE

#####################################################################-->

<svg xmlns="http://www.w3.org/2000/svg"
     width="136"
     height="136">
    <path d="M15,15H11V13H13A2,2 0 0,0 15,11V9C15,7.89 14.1,7 13,7H9V9H13V11H11A2,2 0 0,0 9,13V17H15M19,19H5V5H19M19,3H5A2,2 0 0,0 3,5V19A2,2 0 0,0 5,21H19A2,2 0 0,0 21,19V5A2,2 0 0,0 19,3Z"
          class="Normal"
          transform="matrix(7.555555555555555,0,0,7.555555555555555,-22.666666666666664,-22.666666666666664)" />
</svg>