<?xml version="1.0" encoding="UTF-8" standalone="no"?>

<!-- ####################################################################

This file was generates automatically via the 
IconPacks.Browser (MIT-License). 

Visit https://github.com/MahApps/MahApps.Metro.IconPacks and 
https://github.com/MahApps/MahApps.Metro.IconPacks/blob/develop/LICENSE 
for more information.
 
~~~~~~~~~~~~~~~~~~~~~~~~~~~~~~~~~~~~~~~~~~~~~~~~~~~~~~~~~~~~~~~~~~~~~~~~~~
 
Icon-Name: 			Bug
Iconpack:			Lucide
Iconpack-Homepage: 	https://github.com/lucide-icons/lucide
Iconpack-License:	https://github.com/lucide-icons/lucide?tab=ISC-1-ov-file#readme

#####################################################################-->


<svg xmlns="http://www.w3.org/2000/svg"
     width="48"
     height="48">
    <path d="M326.875 957.4583333333334C299.25 953.6666666666666 283.625 922.4583333333334 296.5833333333333 896.875C298 894.0833333333334 311.6666666666667 879.1666666666666 327.5416666666667 863.125L356 834.375L350.4166666666667 823.2916666666667C338.8333333333333 800.3333333333334 333.4166666666667 776.5416666666666 333.5833333333333 749.125L333.6666666666667 732.6666666666667L323.375 727.6666666666667C302 717.25 277.875 698.7916666666667 261.2916666666667 680.125C252.3333333333333 670.0416666666667 253.4583333333333 670.2083333333334 239.125 676.875C226.1666666666667 682.9166666666667 215.75 690.3333333333333 204.2916666666666 701.7916666666667C181.1666666666667 724.9583333333334 170.25 749.125 167.375 783.4583333333334C165.6666666666667 804.4166666666667 163.25 811.5 155.125 819.875C147.9166666666667 827.25 141.2916666666667 830.8333333333334 132 832.2916666666666C117.5833333333333 834.5416666666667 105.0833333333333 830.375 94.875 819.875C86.2916666666667 811.0833333333334 83.75 803.375 83.7916666666667 786.5C83.8333333333333 741.8333333333334 101.9166666666667 693.4583333333333 132.125 657.2083333333333C150.8333333333334 634.75 176.4583333333334 614.7083333333334 202.3333333333333 602.3333333333333C214.75 596.4166666666667 215.25 596 214.5416666666667 592.75C209.8333333333333 571.2083333333333 208.75 559.5833333333334 208.75 530.375L208.75 500.0833333333334L140.9166666666667 499.75L73.125 499.375L66.25 496.1250000000001C58.5416666666667 492.5000000000001 49.7083333333333 484.25 46.2916666666667 477.5833333333334C33.7083333333333 452.75 48.625 422.7500000000001 76.125 417.5416666666668C80.125 416.7500000000001 108.3333333333333 416.25 145.7916666666667 416.25L208.75 416.25L208.75 405.7083333333334C208.75 386.2916666666668 213.75 355.7916666666668 220.75 332.6666666666668C222.5 326.9583333333334 223.75 322.1250000000001 223.5 322.0000000000001C223.2916666666667 321.8333333333334 219.1666666666667 320.125 214.375 318.2083333333334C150.125 292.1666666666668 102.125 234.3333333333334 87.3333333333333 165.0000000000001C85.1666666666667 154.75 84.5 147.625 84.4583333333333 132.5C84.375 114.3750000000001 84.5833333333333 112.75 87.4166666666667 107.2083333333334C91.25 99.625 99.625 91.2500000000001 107.2083333333333 87.4166666666666C112.25 84.8333333333335 114.9166666666667 84.375 125 84.375C138.9166666666667 84.375 145.0833333333334 86.8333333333334 154.125 95.875C162.3333333333333 104.0416666666667 165.0416666666667 110.5416666666666 166.4583333333333 125.3750000000001C169.1666666666666 153.9583333333334 173.5833333333334 169.5000000000001 184.25 187.5C199.1666666666667 212.7500000000001 221.625 231.7916666666667 248.5833333333333 242.0416666666668C254.5 244.3333333333334 260.25 246.1666666666668 261.375 246.2083333333334C262.4583333333333 246.25 267.25 241.3333333333335 272 235.3333333333334C282.875 221.5416666666668 303.7083333333333 200.5833333333334 317.4583333333333 189.5C413.0416666666667 112.7083333333333 545.9583333333333 103.7916666666667 650.625 167.1666666666668C677.6666666666666 183.5 708.7916666666666 210.9166666666668 728.0416666666666 235.3333333333334C732.7916666666666 241.3333333333335 737.5416666666666 246.25 738.625 246.2083333333334C739.75 246.1666666666668 745.4999999999999 244.3333333333334 751.4166666666666 242.0416666666668C778.375 231.7916666666667 800.8333333333333 212.7500000000001 815.7499999999999 187.5C826.4166666666666 169.5000000000001 830.8333333333334 153.9583333333334 833.5416666666666 125.3750000000001C834.9583333333334 110.5416666666666 837.6666666666666 104.0416666666667 845.8749999999999 95.875C854.9166666666666 86.8333333333334 861.0833333333333 84.375 875 84.375C885.0833333333334 84.375 887.75 84.8333333333335 892.7916666666666 87.4166666666666C900.375 91.2500000000001 908.7499999999998 99.625 912.5833333333334 107.2083333333334C915.4166666666666 112.75 915.625 114.3750000000001 915.5416666666666 132.5C915.5 147.6666666666668 914.875 154.75 912.6666666666666 165.0000000000001C897.7916666666666 234.375 849.8333333333334 292.2083333333335 785.625 318.2083333333334C780.7916666666666 320.125 776.7083333333333 321.8333333333334 776.4999999999999 322.0000000000001C776.2499999999999 322.1250000000001 777.5 326.9583333333334 779.25 332.6666666666668C786.25 355.7916666666668 791.2499999999999 386.2916666666668 791.2499999999999 405.7083333333334L791.2499999999999 416.25L854.2083333333334 416.25C891 416.25 919.9166666666666 416.7500000000001 923.75 417.5C946.6666666666666 421.8333333333334 961.5 443 957.4166666666666 465.5C956.6666666666666 469.6250000000001 955 475 953.75 477.5000000000001C950.2916666666666 484.25 941.4583333333331 492.5000000000001 933.75 496.1250000000001L926.875 499.375L859.0416666666666 499.75L791.2499999999999 500.0833333333334L791.2499999999999 530.375C791.2499999999999 560.625 791.1249999999999 561.625 785.5 593.125C784.875 596.6666666666667 785.2083333333333 597.0416666666667 791.8333333333334 599.875C817.8333333333333 610.9583333333334 847.75 634 867.5 658.125C897.1249999999999 694.3333333333333 914.9166666666666 742.4166666666667 914.9583333333331 786.5C915 803.375 912.4583333333334 811.0833333333334 903.875 819.875C896.6666666666666 827.25 890.0416666666666 830.8333333333334 880.75 832.2916666666666C866.3333333333334 834.5416666666667 853.8333333333334 830.375 843.625 819.875C835.4999999999999 811.5 833.0833333333333 804.4166666666667 831.3749999999999 783.4583333333334C828.5 748.8333333333334 817.75 725.25 793.7916666666665 701.0833333333333C781.9583333333333 689.125 769.4166666666666 680.4166666666667 756.1249999999999 674.9583333333334L747.3333333333333 671.3333333333334L732.7083333333334 686.0416666666667C712.7916666666666 706.2083333333334 693.9583333333334 719.9583333333334 674.2083333333334 728.8333333333334L666.3333333333334 732.375L666.375 749.625C666.4166666666666 776.5833333333334 661.6666666666666 798.1666666666666 650.7083333333334 820.75L644.0833333333333 834.375L672.5 863.125C688.4166666666665 879.25 702.0416666666666 894.0833333333334 703.4583333333333 896.9583333333334C717.4999999999999 924.5 698.1666666666666 957.4583333333334 667.8333333333333 957.7083333333334C649.7916666666666 957.875 644.9166666666666 954.625 609.5 919L584.625 894L573.6666666666666 899.5C550.375 911.1666666666666 528.0416666666666 916.25 500.0833333333333 916.25C471.6666666666666 916.25 449.875 911.2916666666666 426.3333333333333 899.5L415.375 894L390.5 918.9583333333334C376.8333333333333 932.6666666666666 362.3333333333333 946.375 358.3333333333333 949.4166666666666C348.75 956.7083333333334 339.2083333333333 959.125 326.875 957.4583333333334M521.875 830.5833333333334C536.3749999999999 826.7916666666667 552.9583333333334 816.3333333333334 562.8333333333333 804.7916666666667C574.1666666666666 791.4166666666666 580.75 776.0833333333334 582.375 759.125L583.2499999999999 750L500 750L416.75 750L417.625 759.125C420.3333333333333 787.5 437.0833333333333 811.625 463.2083333333334 824.6666666666666C467.2916666666666 826.75 472.625 829.0416666666667 475.0416666666666 829.8333333333334C487.5416666666667 833.875 507.9583333333333 834.2083333333334 521.875 830.5833333333334M615.875 662.2083333333334C652.3333333333334 651.5416666666667 679.625 628.8333333333334 695.5833333333333 595.8333333333334C707.375 571.4583333333334 708.75 559.3333333333333 708.7083333333333 478.75C708.6666666666666 414.4166666666668 707.7083333333333 394.4166666666667 703.75 374.9583333333334C692.4166666666665 319.1666666666668 657.2916666666666 269.375 607.7916666666666 238.8750000000001C591.8333333333334 229.0833333333334 570.4166666666666 219.8750000000001 553.4583333333333 215.5833333333334C549.1666666666666 214.5 544.625 213.3333333333334 543.4166666666666 212.9583333333334C541.375 212.3750000000001 541.25 220.9583333333334 541.25 381.125C541.25 548.9166666666667 541.25 549.9583333333334 538.6666666666666 556.8333333333334C535.6666666666666 564.8333333333333 526.8333333333333 574.625 519.0833333333333 578.5833333333333C508.3333333333333 584.0833333333334 491.6666666666667 584.0833333333334 480.9166666666666 578.5833333333333C473.1666666666666 574.625 464.3333333333333 564.8333333333333 461.3333333333333 556.8333333333334C458.7499999999999 549.9583333333334 458.7499999999999 548.9166666666667 458.7499999999999 381.125C458.7499999999999 220.9583333333334 458.6249999999999 212.3750000000001 456.5416666666667 212.9583333333334C455.375 213.3333333333334 450.8333333333333 214.5 446.5416666666667 215.5833333333334C372.5833333333333 234.2916666666668 311.7083333333333 298.8333333333334 296.25 374.9583333333334C292.2916666666667 394.4583333333334 291.3333333333333 414.4166666666668 291.2916666666667 479.3750000000001C291.25 559.375 292.5833333333333 571.4166666666667 304.4166666666667 595.8333333333334C318.6666666666667 625.2916666666667 344.625 648.75 374.0833333333333 658.8333333333333C395.875 666.2916666666667 392.75 666.125 503.1249999999999 665.8333333333334L604.375 665.5416666666667L615.875 662.2083333333334"
          class="Normal"
          transform="matrix(0.05238365096776131,0,0,-0.05238365096776131,-2.1883590715525547,51.30070814715387)" />
</svg>