<?xml version="1.0" encoding="UTF-8" standalone="no"?>

<!-- ####################################################################

This file was generates automatically via the 
IconPacks.Browser (MIT-License). 

Visit https://github.com/MahApps/MahApps.Metro.IconPacks and 
https://github.com/MahApps/MahApps.Metro.IconPacks/blob/develop/LICENSE 
for more information.
 
~~~~~~~~~~~~~~~~~~~~~~~~~~~~~~~~~~~~~~~~~~~~~~~~~~~~~~~~~~~~~~~~~~~~~~~~~~
 
Icon-Name: 			CalendarSync
Iconpack:			Material
Iconpack-Homepage: 	https://pictogrammers.com/library/mdi/
Iconpack-License:	https://github.com/Templarian/MaterialDesign?tab=License-1-ov-file#readme

#####################################################################-->


<svg xmlns="http://www.w3.org/2000/svg"
     width="48"
     height="48">
    <path d="M18,11V12.5C21.19,12.5 23.09,16.05 21.33,18.71L20.24,17.62C21.06,15.96 19.85,14 18,14V15.5L15.75,13.25L18,11M18,22V20.5C14.81,20.5 12.91,16.95 14.67,14.29L15.76,15.38C14.94,17.04 16.15,19 18,19V17.5L20.25,19.75L18,22M19,3H18V1H16V3H8V1H6V3H5A2,2 0 0,0 3,5V19A2,2 0 0,0 5,21H14C13.36,20.45 12.86,19.77 12.5,19H5V8H19V10.59C19.71,10.7 20.39,10.94 21,11.31V5A2,2 0 0,0 19,3Z"
          class="Normal"
          transform="matrix(2.2857142857142856,0,0,2.2857142857142856,-4.57403346470424,-2.2857142857142856)" />
</svg>