<?xml version="1.0" encoding="UTF-8" standalone="no"?>

<!-- ####################################################################

This file was generates automatically via the 
IconPacks.Browser (MIT-License). 

Visit https://github.com/MahApps/MahApps.Metro.IconPacks and 
https://github.com/MahApps/MahApps.Metro.IconPacks/blob/develop/LICENSE 
for more information.
 
~~~~~~~~~~~~~~~~~~~~~~~~~~~~~~~~~~~~~~~~~~~~~~~~~~~~~~~~~~~~~~~~~~~~~~~~~~
 
Icon-Name: 			Columns3
Iconpack:			Lucide
Iconpack-Homepage: 	https://github.com/lucide-icons/lucide
Iconpack-License:	https://github.com/lucide-icons/lucide?tab=ISC-1-ov-file#readme

#####################################################################-->


<svg xmlns="http://www.w3.org/2000/svg"
     width="48"
     height="48">
    <path d="M185.625 914.4166666666669C137.875 905.5416666666666 100.5833333333333 870.4166666666667 86.6666666666667 821.25C84.4583333333333 813.4583333333334 84.375 800.0416666666666 84.375 500C84.375 199.9583333333334 84.4583333333333 186.5416666666668 86.6666666666667 178.75C99.7916666666667 132.25 132.25 99.7916666666667 178.75 86.6666666666666C186.5416666666667 84.4583333333334 199.9583333333334 84.375 500 84.375C800.0416666666666 84.375 813.4583333333333 84.4583333333334 821.25 86.6666666666666C867.75 99.7916666666667 900.2083333333333 132.25 913.3333333333334 178.75C915.5416666666666 186.5416666666668 915.625 199.9583333333334 915.625 500C915.625 800.0416666666666 915.5416666666666 813.4583333333334 913.3333333333334 821.25C900.4166666666666 867 868.25 899.625 823.1249999999999 912.7083333333334L813.125 915.625L503.7499999999999 915.8333333333334C254.5833333333334 916 192.6666666666666 915.7083333333334 185.625 914.4166666666669M333.75 500L333.75 166.25L270.7916666666667 166.25C233.3333333333333 166.25 205.125 166.75 201.125 167.5416666666668C187.4166666666667 170.125 176.375 178.7916666666668 170.4166666666667 191.7083333333334L166.875 199.375L166.875 500L166.875 800.625L170.375 808.125C176.625 821.4583333333334 188.2916666666667 830.5416666666666 201.875 832.5C205.2916666666666 833.0416666666667 236.375 833.5 270.9166666666667 833.5833333333334L333.75 833.75L333.75 500M583.75 500L583.75 166.25L500 166.25L416.25 166.25L416.25 500L416.25 833.75L500 833.75L583.75 833.75L583.75 500M808.2916666666666 829.5833333333334C817.7916666666666 825.2083333333334 825.0833333333333 817.875 829.625 808.125L833.125 800.625L833.125 500L833.125 199.375L829.5833333333333 191.7083333333334C823.6249999999999 178.7916666666668 812.5833333333333 170.125 798.8749999999999 167.5416666666668C794.875 166.75 766.6666666666665 166.25 729.2083333333334 166.25L666.25 166.25L666.25 500.0833333333334L666.25 833.9166666666666L733.4166666666666 833.5L800.625 833.125L808.2916666666666 829.5833333333334"
          class="Normal"
          transform="matrix(0.05772693160077373,0,0,-0.05772693160077373,-4.863465800386866,52.870709853815285)" />
</svg>