<?xml version="1.0" encoding="UTF-8" standalone="no" ?>

<!-- ####################################################################

This file was generates automatically via the
IconPacks.Browser (MIT-License).

Visit https://github.com/MahApps/MahApps.Metro.IconPacks and
https://github.com/MahApps/MahApps.Metro.IconPacks/blob/develop/LICENSE
for more information.

~~~~~~~~~~~~~~~~~~~~~~~~~~~~~~~~~~~~~~~~~~~~~~~~~~~~~~~~~~~~~~~~~~~~~~~~~~

Icon-Name: 			DatabaseAdd
Iconpack:			PicolIcons
Iconpack-Homepage: 	https://github.com/PicolSigns/Icons
Iconpack-License:	https://github.com/PicolSigns/Icons/blob/master/LICENSE

#####################################################################-->

<svg xmlns="http://www.w3.org/2000/svg"
     width="136"
     height="136">
    <path d="M687.5 687.5L562.5 687.5L562.5 750L687.5 750L687.5 875L750.1 875L750.1 750L875 750L875 687.5L750.1 687.5L750.1 562.5L687.5 562.5ZM937.4 542.1V156.2C938.3 147.7 931 102.6 871.8 67.1C812.9 31.2 706.2 0.1 500.1 0C293.8 0.1 187.2 31.2 128.2 67.1C69 102.6 61.7 147.7 62.6 156.2V866.8C61.5 877.9 72.1 917.7 130.6 945.8C188.9 974.7 294.3 999.8 500 1000C561.8 999.9 614.4 997.6 659.5 993.6C678.6 997.7 698.4 1000 718.7 1000C874.1 999.9 999.9 874.1 1000 718.7C1000 651.8 976.5 590.4 937.4 542.1ZM500 937.5C299.6 937.7 201.8 911.8 158.6 889.9C136.9 878.9 127.8 869.6 125 865.5C124.5 864.7 125.3 864 125.1 863.6L125 243.2C126.2 243.9 127 244.7 128.2 245.4C187.2 281.3 293.8 312.3 500.1 312.5C706.2 312.3 812.9 281.3 871.8 245.4C872.9 244.7 873.8 243.9 875 243.2V484.9C830.3 455 776.6 437.5 718.7 437.5C563.3 437.6 437.5 563.3 437.5 718.7C437.5 806.9 478.1 885.5 541.6 937.1C528.2 937.3 514.5 937.5 500 937.5ZM718.7 937.4C597.9 937.3 500.2 839.5 500 718.7C500.2 597.9 597.9 500.3 718.7 500C839.5 500.3 937.3 597.9 937.4 718.7C937.3 839.5 839.5 937.3 718.7 937.4Z"
          class="Normal"
          transform="matrix(0.136,0,0,0.136,-4.251756912231445,0)" />
</svg>