<?xml version="1.0" encoding="UTF-8" standalone="no" ?>

<!-- ####################################################################

This file was generates automatically via the
IconPacks.Browser (MIT-License).

Visit https://github.com/MahApps/MahApps.Metro.IconPacks and
https://github.com/MahApps/MahApps.Metro.IconPacks/blob/develop/LICENSE
for more information.

~~~~~~~~~~~~~~~~~~~~~~~~~~~~~~~~~~~~~~~~~~~~~~~~~~~~~~~~~~~~~~~~~~~~~~~~~~

Icon-Name: 			DatabasePlus
Iconpack:			Material
Iconpack-Homepage: 	https://materialdesignicons.com/
Iconpack-License:	https://github.com/Templarian/MaterialDesign/blob/master/LICENSE

#####################################################################-->

<svg xmlns="http://www.w3.org/2000/svg"
     width="128"
     height="128">
    <path d="M18,14H20V17H23V19H20V22H18V19H15V17H18V14M12,3C16.42,3 20,4.79 20,7C20,9.21 16.42,11 12,11C7.58,11 4,9.21 4,7C4,4.79 7.58,3 12,3M4,9C4,11.21 7.58,13 12,13C16.42,13 20,11.21 20,9V9L20,12.08L19,12C16.41,12 14.2,13.64 13.36,15.94L12,16C7.58,16 4,14.21 4,12V9M4,14C4,16.21 7.58,18 12,18H13C13,19.05 13.27,20.04 13.75,20.9L12,21C7.58,21 4,19.21 4,17V14Z"
          class="Normal"
          transform="matrix(6.7368421052631575,0,0,6.7368421052631575,-26.94736842105263,-20.210526315789473)" />
</svg>