<?xml version="1.0" encoding="UTF-8" standalone="no" ?>

<!-- ####################################################################

This file was generates automatically via the
IconPacks.Browser (MIT-License).

Visit https://github.com/MahApps/MahApps.Metro.IconPacks and
https://github.com/MahApps/MahApps.Metro.IconPacks/blob/develop/LICENSE
for more information.

~~~~~~~~~~~~~~~~~~~~~~~~~~~~~~~~~~~~~~~~~~~~~~~~~~~~~~~~~~~~~~~~~~~~~~~~~~

Icon-Name: 			ListX
Iconpack:			Lucide
Iconpack-Homepage: 	https://github.com/lucide-icons/lucide
Iconpack-License:	https://github.com/lucide-icons/lucide?tab=ISC-1-ov-file#readme

#####################################################################-->

<svg xmlns="http://www.w3.org/2000/svg"
     width="128"
     height="128">
    <path d="M113.75 790.0833333333334C103.0833333333333 786.7916666666667 92.5833333333333 777.9166666666667 87.375 767.75C84.8333333333333 762.75 84.375 760.0833333333334 84.375 750C84.375 739.9166666666667 84.8333333333333 737.25 87.4166666666667 732.2083333333334C91.25 724.625 99.625 716.25 107.2083333333333 712.4166666666667L113.125 709.375L394 709.0416666666667L674.8333333333334 708.7083333333334L681.8333333333334 711.3333333333334C690.8333333333333 714.7083333333333 700.2916666666665 723.875 704.6666666666666 733.4166666666667C709.2916666666666 743.5416666666667 709.3333333333334 756.4583333333334 704.7083333333333 766.5C700.75 775.125 692.7083333333333 783.4583333333334 684.3333333333333 787.5833333333334L678.1249999999999 790.625L397.5 790.8333333333334C243.1666666666667 790.9583333333334 115.4583333333333 790.625 113.75 790.0833333333334M613.7083333333333 623.375C590.4583333333333 616.7916666666667 577.8333333333333 591.0416666666667 586.4166666666666 567.875C588.8749999999999 561.3333333333333 592.0416666666666 557.6666666666667 619.1666666666666 530.3333333333334L649.2083333333333 500L619.1666666666666 469.7083333333334C592.0416666666666 442.3333333333334 588.8749999999999 438.6666666666668 586.4166666666666 432.125C578.7916666666666 411.5 587.75 388.7083333333334 607.3333333333334 379.0833333333334C613.25 376.1666666666668 616 375.6250000000001 624.3749999999999 375.6250000000001C641.8333333333333 375.6250000000001 642.6666666666666 376.1666666666668 677.5416666666666 410.7916666666668L708.2083333333333 441.2083333333334L735.6666666666666 413.625C765.4583333333333 383.7083333333334 770.4166666666665 379.5833333333334 780.2916666666666 376.6666666666667C798.2083333333333 371.375 820.25 380.8333333333334 828.75 397.5C834.4166666666666 408.625 834.3749999999999 424.375 828.625 435.5833333333334C827.1666666666666 438.4166666666668 813.2083333333333 453.5416666666667 796.4999999999999 470.2916666666667L766.875 500L796.4999999999999 529.7083333333333C813.2083333333333 546.4583333333334 827.1666666666666 561.5833333333334 828.625 564.4166666666667C834.3749999999999 575.625 834.4166666666666 591.375 828.75 602.5C825.2916666666665 609.2916666666667 816.4583333333333 617.5 808.75 621.0833333333334C803.1666666666666 623.7083333333333 799.9999999999999 624.2916666666667 791.8749999999999 624.2916666666667C774.8333333333333 624.2916666666667 771.8749999999999 622.3333333333334 737.4583333333334 588.0833333333334L708.0833333333333 558.7916666666667L678.8333333333334 588.0416666666667C646 620.9166666666666 642.375 623.5 627.9999999999999 624.4166666666667C622.9583333333334 624.75 617 624.3333333333334 613.7083333333333 623.375M113.75 540.0833333333334C103.0833333333333 536.8333333333334 92.5833333333333 527.9583333333333 87.375 517.75C84.8333333333333 512.75 84.375 510.0833333333334 84.375 500C84.375 489.9166666666667 84.8333333333333 487.2500000000001 87.4166666666667 482.2083333333334C91.25 474.625 99.625 466.25 107.2083333333333 462.4166666666667L113.125 459.375L289.5833333333333 459.0416666666666L466.0833333333333 458.7083333333334L473.2916666666666 461.4166666666667C482.4166666666666 464.8333333333334 491.4166666666667 473.125 495.9166666666666 482.3333333333334C498.875 488.3333333333334 499.3749999999999 490.9166666666667 499.3749999999999 500C499.3749999999999 509.125 498.875 511.625 495.8749999999999 517.75C491.4999999999999 526.6666666666667 482.0833333333333 535.2916666666667 473 538.6666666666667C466.2083333333333 541.25 464.7499999999999 541.25 291.5 541.125C195.4583333333333 541.0833333333334 115.4583333333333 540.625 113.75 540.0833333333334M113.75 290.0833333333334C103.0833333333333 286.7916666666667 92.5833333333333 277.9166666666668 87.375 267.75C84.8333333333333 262.7500000000001 84.375 260.0833333333334 84.375 250C84.375 239.9166666666667 84.8333333333333 237.25 87.4166666666667 232.2083333333334C91.25 224.625 99.625 216.2500000000001 107.2083333333333 212.4166666666666L113.125 209.375L394 209.0416666666668L674.8333333333334 208.7083333333334L681.8333333333334 211.3333333333334C690.8333333333333 214.7083333333334 700.2916666666665 223.8750000000001 704.6666666666666 233.4166666666668C709.2916666666666 243.5416666666667 709.3333333333334 256.4583333333334 704.7083333333333 266.5000000000001C700.75 275.1250000000001 692.7083333333333 283.4583333333334 684.3333333333333 287.5833333333334L678.1249999999999 290.6250000000001L397.5 290.8333333333334C243.1666666666667 290.9583333333334 115.4583333333333 290.6250000000001 113.75 290.0833333333334"
          class="Normal"
          transform="matrix(0.1709872120293219,0,0,-0.1709872120293219,-14.427046014974035,149.4566630607314)" />
</svg>