<?xml version="1.0" encoding="UTF-8" standalone="no" ?>

<!-- ####################################################################

This file was generates automatically via the
IconPacks.Browser (MIT-License).

Visit https://github.com/MahApps/MahApps.Metro.IconPacks and
https://github.com/MahApps/MahApps.Metro.IconPacks/blob/develop/LICENSE
for more information.

~~~~~~~~~~~~~~~~~~~~~~~~~~~~~~~~~~~~~~~~~~~~~~~~~~~~~~~~~~~~~~~~~~~~~~~~~~

Icon-Name: 			RowsPlusTop
Iconpack:			PhosphorIcons
Iconpack-Homepage: 	https://phosphoricons.com/
Iconpack-License:	https://github.com/phosphor-icons/core?tab=MIT-1-ov-file#readme

#####################################################################-->

<svg xmlns="http://www.w3.org/2000/svg"
     width="128"
     height="128">
    <path d="M208,160H48a16,16,0,0,0-16,16v24a16,16,0,0,0,16,16H208a16,16,0,0,0,16-16V176A16,16,0,0,0,208,160Zm0,40H48V176H208v24Zm0-112H48a16,16,0,0,0-16,16v24a16,16,0,0,0,16,16H208a16,16,0,0,0,16-16V104A16,16,0,0,0,208,88Zm0,40H48V104H208v24ZM96,40a8,8,0,0,1,8-8h16V16a8,8,0,0,1,16,0V32h16a8,8,0,0,1,0,16H136V64a8,8,0,0,1-16,0V48H104A8,8,0,0,1,96,40Z"
          class="Normal"
          transform="matrix(0.6153846153846154,0,0,0.6153846153846154,-14.76923076923077,-4.923076923076923)" />
</svg>