<?xml version="1.0" encoding="UTF-8" standalone="no" ?>

<!-- ####################################################################

This file was generates automatically via the
IconPacks.Browser (MIT-License).

Visit https://github.com/MahApps/MahApps.Metro.IconPacks and
https://github.com/MahApps/MahApps.Metro.IconPacks/blob/develop/LICENSE
for more information.

~~~~~~~~~~~~~~~~~~~~~~~~~~~~~~~~~~~~~~~~~~~~~~~~~~~~~~~~~~~~~~~~~~~~~~~~~~

Icon-Name: 			ScanSearch
Iconpack:			Lucide
Iconpack-Homepage: 	https://github.com/lucide-icons/lucide
Iconpack-License:	https://github.com/lucide-icons/lucide?tab=ISC-1-ov-file#readme

#####################################################################-->

<svg xmlns="http://www.w3.org/2000/svg"
     width="128"
     height="128">
    <path d="M185.625 914.4166666666669C145.2916666666667 906.875 109.4583333333333 878.3333333333334 93.7916666666667 841.25C84.375 818.9583333333334 84.5833333333333 820.5416666666666 84.0416666666667 757.4583333333334C83.5833333333333 701.75 83.6666666666667 700.375 86.25 693.375C88 688.75 91.125 684 95.0833333333333 679.9166666666667C111.875 662.6666666666667 137.4583333333333 662.4166666666667 154.4166666666667 679.3333333333334C165.7083333333333 690.625 165.5416666666667 689.625 166.25 748.75L166.875 800.625L170.4166666666667 808.2916666666667C174.7916666666667 817.7916666666666 182.125 825.0833333333333 191.875 829.625L199.375 833.125L251.25 833.75C310.375 834.4583333333334 309.375 834.2916666666667 320.6666666666667 845.5833333333334C337.1666666666667 862.125 337.3333333333333 887.75 321 904.0416666666666C318 907.0416666666666 312.75 910.875 309.3333333333333 912.5833333333334L303.125 915.625L248.75 915.8333333333334C208.4583333333333 916 192.125 915.625 185.625 914.4166666666669M694.7083333333333 914.4166666666669C677.7083333333334 908 667.0833333333334 892.875 667.0416666666666 875C667.0416666666666 863.2916666666666 670.9166666666666 854.0416666666666 679.3333333333333 845.5833333333334C690.6249999999999 834.2916666666667 689.6249999999999 834.4583333333334 748.7499999999999 833.75L800.625 833.125L808.2916666666666 829.5833333333334C817.7916666666666 825.2083333333334 825.0833333333333 817.875 829.625 808.125L833.125 800.625L833.75 748.75C834.4583333333334 689.625 834.2916666666666 690.625 845.5833333333333 679.3333333333334C857.9999999999999 666.9166666666667 876.3333333333333 663.3333333333334 891.5833333333333 670.3333333333334C901.2499999999998 674.75 910.2916666666666 684.1666666666667 913.7499999999998 693.375C916.3333333333334 700.375 916.4166666666666 701.75 915.9583333333331 757.4583333333334C915.5 811.2083333333334 915.3333333333331 814.875 912.8333333333334 823.125C901.1666666666666 861.5416666666667 878.0416666666666 888.7916666666666 843.4999999999999 904.9583333333334C837.7916666666666 907.625 828.625 911.0833333333334 823.1249999999999 912.6666666666666C813.5 915.375 811.0833333333334 915.5 756.2499999999999 915.8333333333334C709.8333333333334 916.0833333333334 698.4999999999999 915.8333333333334 694.7083333333333 914.4166666666669M473.7499999999999 664.4583333333333C431.5833333333333 656.9166666666667 396.2916666666667 636.5416666666666 371.2083333333333 605.375C353.9166666666667 583.875 344.3333333333333 564.3333333333334 337.375 536.25C334.7916666666667 525.8333333333333 334.4166666666667 521.4166666666667 334.4166666666667 500C334.4166666666667 473.4166666666667 336.0416666666667 463.5416666666667 343.8333333333333 442.2916666666668C360.4583333333333 396.9583333333334 396.9583333333333 360.4583333333334 442.2916666666667 343.8333333333334C463.5416666666666 336.0416666666667 473.4166666666666 334.4166666666668 500 334.4166666666668C521.4166666666666 334.4166666666668 525.8333333333333 334.7916666666668 536.2499999999999 337.375C550.7916666666666 341 564.5 345.9583333333334 575.8333333333333 351.7083333333334L584.375 356L613.125 327.5416666666668C629.3333333333333 311.5 644.0833333333333 297.9583333333334 646.9583333333333 296.5416666666668C672.1666666666667 283.7083333333334 702.2083333333334 298.4166666666667 707.5 326.2083333333334C709.0416666666666 334.2916666666668 707.375 345.4166666666667 703.4583333333333 353.0416666666668C702.0416666666666 355.9166666666668 688.5 370.6666666666668 672.4583333333333 386.875L644 415.625L648.2916666666666 424.1666666666668C654.0416666666666 435.5 659 449.2083333333334 662.625 463.7500000000001C665.2083333333333 474.1666666666667 665.5833333333333 478.5833333333334 665.5833333333333 500C665.5833333333333 526.5833333333334 663.9583333333334 536.4583333333334 656.1666666666666 557.7083333333334C636.5416666666666 611.1666666666667 590.7083333333333 650.625 533.75 663.125C521 665.9583333333334 486.2499999999999 666.7083333333334 473.7499999999999 664.4583333333333M520.9583333333333 580.5416666666667C536 577.1666666666667 554.125 565.5833333333334 564.3333333333334 552.75C577.1666666666666 536.5833333333334 582.6666666666666 520.8333333333334 582.6666666666666 500C582.6666666666666 475.3750000000001 576.125 459.8333333333334 558.1666666666666 441.75C545.8333333333333 429.2916666666668 535.875 423.25 521.125 419.25C510.3333333333333 416.2916666666668 489.6249999999999 416.2916666666668 478.7916666666666 419.25C449.9583333333333 427.125 425.75 451.6666666666667 419.2916666666667 479.625C416.7916666666667 490.3750000000001 416.7916666666667 509.7083333333334 419.3333333333333 520.5416666666667C424.4583333333333 542.7083333333334 441.75 563.9166666666667 463.7916666666666 575C479.6666666666667 583.0416666666667 500.6666666666666 585.0416666666667 520.9583333333333 580.5416666666667M117.7916666666667 332.2916666666668C104.0416666666667 330.125 91.125 319.625 86.25 306.6250000000001C83.6666666666667 299.625 83.5833333333333 298.2500000000001 84.0416666666667 242.5416666666668C84.5 188.7916666666666 84.6666666666667 185.1250000000001 87.1666666666667 176.8750000000001C101.0416666666667 131.3333333333334 131.3333333333334 101.0416666666667 176.875 87.1666666666666C185.125 84.6666666666667 188.7916666666667 84.5 242.5416666666667 84.0416666666667C298.25 83.5833333333334 299.625 83.6666666666666 306.625 86.2500000000001C315.8333333333333 89.7083333333334 325.25 98.7500000000001 329.6666666666667 108.4166666666667C334.2916666666667 118.5416666666666 334.3333333333333 131.4583333333335 329.7083333333333 141.5000000000001C325.75 150.1250000000001 317.7083333333333 158.4583333333334 309.3333333333333 162.5833333333334C303.125 165.6250000000001 303.125 165.6250000000001 251.25 166.3333333333334C196.5416666666666 167.0416666666668 195.8333333333334 167.125 186.25 173.2083333333334C179.4583333333334 177.5000000000001 174.2083333333333 183.7083333333334 170.375 191.8750000000001L166.875 199.375L166.25 251.2500000000001C165.7083333333333 296.9583333333334 165.375 303.7083333333335 163.4583333333333 307.9166666666668C155.4166666666667 325.6666666666667 137.2916666666667 335.3333333333334 117.7916666666667 332.2916666666668M867.7916666666667 332.2916666666668C859.0833333333333 330.9166666666668 852.25 327.3333333333335 845.4166666666666 320.4583333333334C834.3333333333334 309.3750000000001 834.4583333333334 310.2500000000001 833.75 251.2500000000001L833.125 199.375L829.625 191.8750000000001C825.7916666666666 183.7083333333334 820.5416666666666 177.5000000000001 813.75 173.2083333333334C804.1666666666666 167.125 803.4583333333334 167.0416666666668 748.7499999999999 166.3333333333334C696.875 165.6250000000001 696.875 165.6250000000001 690.6666666666666 162.5833333333334C670.4166666666666 152.6250000000001 661.2916666666666 128.2083333333335 670.3333333333334 108.4166666666667C674.7499999999999 98.7500000000001 684.1666666666667 89.7083333333334 693.3749999999999 86.2500000000001C700.375 83.6666666666666 701.7499999999999 83.5833333333334 757.4583333333333 84.0416666666667C811.2083333333334 84.5 814.8749999999999 84.6666666666667 823.1249999999999 87.1666666666666C868.6666666666666 101.0416666666667 899 131.3333333333334 912.8333333333334 176.8750000000001C915.3333333333331 185.1250000000001 915.5 188.8333333333334 915.9583333333331 242.25C916.4583333333334 305.2916666666668 916.4166666666666 305.7500000000001 908.125 316.625C898.6666666666666 329.0000000000001 883.75 334.7916666666668 867.7916666666667 332.2916666666668"
          class="Normal"
          transform="matrix(0.15378221653335258,0,0,-0.15378221653335258,-12.891110613206692,140.8715546288227)" />
</svg>