<?xml version="1.0" encoding="UTF-8" standalone="no" ?>

<!-- ####################################################################

This file was generates automatically via the
IconPacks.Browser (MIT-License).

Visit https://github.com/MahApps/MahApps.Metro.IconPacks and
https://github.com/MahApps/MahApps.Metro.IconPacks/blob/develop/LICENSE
for more information.

~~~~~~~~~~~~~~~~~~~~~~~~~~~~~~~~~~~~~~~~~~~~~~~~~~~~~~~~~~~~~~~~~~~~~~~~~~

Icon-Name: 			OptsH
Iconpack:			Microns
Iconpack-Homepage: 	https://github.com/stephenhutchings/microns
Iconpack-License:	https://github.com/stephenhutchings/microns?tab=License-1-ov-file#readme

#####################################################################-->

<svg xmlns="http://www.w3.org/2000/svg"
     width="128"
     height="128">
    <path d="M450 290q22-1 36-15 14-14 14-35 0-22-14-36-14-14-36-14-21 0-35 14-14 14-15 36 1 21 15 35 14 14 35 15l0 0z m-370-50q1 21 15 35 14 14 35 15 22-1 36-15 14-14 14-35 0-22-14-36-14-14-36-14-21 0-35 14-14 14-15 36l0 0z m160 0q1 21 15 35 14 14 35 15 22-1 36-15 14-14 14-35 0-22-14-36-14-14-36-14-21 0-35 14-14 14-15 36l0 0z"
          class="Normal"
          transform="matrix(0.3047619047619048,0,0,0.3047619047619048,-24.380952380952383,-9.142857142857144)" />
</svg>