<?xml version="1.0" encoding="UTF-8" standalone="no" ?>

<!-- ####################################################################

This file was generates automatically via the
IconPacks.Browser (MIT-License).

Visit https://github.com/MahApps/MahApps.Metro.IconPacks and
https://github.com/MahApps/MahApps.Metro.IconPacks/blob/develop/LICENSE
for more information.

~~~~~~~~~~~~~~~~~~~~~~~~~~~~~~~~~~~~~~~~~~~~~~~~~~~~~~~~~~~~~~~~~~~~~~~~~~

Icon-Name: 			SignOut
Iconpack:			ForkAwesome
Iconpack-Homepage: 	https://forkaweso.me/
Iconpack-License:	https://github.com/ForkAwesome/Fork-Awesome/blob/master/LICENSES

#####################################################################-->

<svg xmlns="http://www.w3.org/2000/svg"
     width="48"
     height="48">
    <path d="M640 96c0 -28 13 -96 -32 -96h-320c-159 0 -288 129 -288 288v704c0 159 129 288 288 288h320c17 0 32 -15 32 -32c0 -28 13 -96 -32 -96h-320c-88 0 -160 -72 -160 -160v-704c0 -88 72 -160 160 -160h288c25 0 64 5 64 -32zM1568 640c0 -17 -7 -33 -19 -45l-544 -544 c-12 -12 -28 -19 -45 -19c-35 0 -64 29 -64 64v288h-448c-35 0 -64 29 -64 64v384c0 35 29 64 64 64h448v288c0 35 29 64 64 64c17 0 33 -7 45 -19l544 -544c12 -12 19 -28 19 -45z"
          class="Normal"
          transform="matrix(0.030612244897959183,0,0,-0.030612244897959183,0,43.59183673469388)" />
</svg>