<?xml version="1.0" encoding="UTF-8" standalone="no" ?>

<!-- ####################################################################

This file was generates automatically via the
IconPacks.Browser (MIT-License).

Visit https://github.com/MahApps/MahApps.Metro.IconPacks and
https://github.com/MahApps/MahApps.Metro.IconPacks/blob/develop/LICENSE
for more information.

~~~~~~~~~~~~~~~~~~~~~~~~~~~~~~~~~~~~~~~~~~~~~~~~~~~~~~~~~~~~~~~~~~~~~~~~~~

Icon-Name: 			Eye
Iconpack:			EvaIcons
Iconpack-Homepage: 	https://akveo.github.io/eva-icons/
Iconpack-License:	https://github.com/akveo/eva-icons/blob/master/LICENSE.txt

#####################################################################-->

<svg xmlns="http://www.w3.org/2000/svg"
     width="48"
     height="48">
    <path d="M262.5 300A37.5 37.5 0 0 1 337.5 300A37.5 37.5 0 0 1 262.5 300M546.75 312.5C530.75 340.25 442.75 479.5 293.25 475C155 471.5 75 350 53.25 312.5A25 25 0 0 1 53.25 287.5C69 260.25 153.25 125 300.5000000000001 125H306.7500000000001C445 128.5 525.25 250 546.75 287.5A25 25 0 0 1 546.75 312.5zM300.0000000000001 212.5A87.5 87.5 0 1 0 387.5000000000001 300A87.5 87.5 0 0 0 300.0000000000001 212.5z"
          class="Normal"
          transform="matrix(0.09596185890959355,0,0,-0.09596185890959355,-4.788557672878065,52.79367526774026)" />
</svg>