<?xml version="1.0" encoding="UTF-8" standalone="no" ?>

<!-- ####################################################################

This file was generates automatically via the
IconPacks.Browser (MIT-License).

Visit https://github.com/MahApps/MahApps.Metro.IconPacks and
https://github.com/MahApps/MahApps.Metro.IconPacks/blob/develop/LICENSE
for more information.

~~~~~~~~~~~~~~~~~~~~~~~~~~~~~~~~~~~~~~~~~~~~~~~~~~~~~~~~~~~~~~~~~~~~~~~~~~

Icon-Name: 			EyeOff
Iconpack:			EvaIcons
Iconpack-Homepage: 	https://akveo.github.io/eva-icons/
Iconpack-License:	https://github.com/akveo/eva-icons/blob/master/LICENSE.txt

#####################################################################-->

<svg xmlns="http://www.w3.org/2000/svg"
     width="48"
     height="48">
    <path d="M262.5 300A37.5 37.5 0 0 1 337.5 300A37.5 37.5 0 0 1 262.5 300M382.25 147L350 180.5L348.25 182.25L316.5 214A101.75000000000001 101.75000000000001 0 0 0 301.25 212.5A87.5 87.5 0 0 0 212.5 300A101.75000000000001 101.75000000000001 0 0 0 214 315.25L164 365.25L125 403.25A397.25 397.25 0 0 1 53.25 312.5A25 25 0 0 1 53.25 287.5C69 260.25 153.25 125 300.5 125H306.75A237 237 0 0 1 387.5 141.7500000000001zM214.75 456L284.75 386A101.75000000000001 101.75000000000001 0 0 0 300 387.5A87.5 87.5 0 0 0 387.5 300A101.75000000000001 101.75000000000001 0 0 0 386 284.75L453 217.75L474 196.75A397.25 397.25 0 0 1 546.75 287.5A25 25 0 0 1 546.75 312.5C530.75 340.25 442.75 479.5 293.25 475A237 237 0 0 1 212.5 458.25zM517.75 117.75L485.25 150L435.25 200L197.25 438.25L160.5 475L117.75 517.75A25 25 0 0 1 82.25 482.25L138.25 425L182 382.5L364.75 200L366.5 198.25L400 164.75L414.75 150L482.25 82.25A25 25 0 0 1 517.75 82.25A25 25 0 0 1 517.75 117.75z"
          class="Normal"
          transform="matrix(0.09596185890959355,0,0,-0.09596185890959355,-4.788557672878065,52.78651063493319)" />
</svg>