<?xml version="1.0" encoding="UTF-8" standalone="no" ?>

<!-- ####################################################################

This file was generates automatically via the
IconPacks.Browser (MIT-License).

Visit https://github.com/MahApps/MahApps.Metro.IconPacks and
https://github.com/MahApps/MahApps.Metro.IconPacks/blob/develop/LICENSE
for more information.

~~~~~~~~~~~~~~~~~~~~~~~~~~~~~~~~~~~~~~~~~~~~~~~~~~~~~~~~~~~~~~~~~~~~~~~~~~

Icon-Name: 			InfoLarge
Iconpack:			Typicons
Iconpack-Homepage: 	https://www.s-ings.com/typicons/
Iconpack-License:	https://github.com/stephenhutchings/typicons.font/blob/master/LICENCE.md

#####################################################################-->

<svg xmlns="http://www.w3.org/2000/svg"
     width="136"
     height="136">
    <path d=" M576.6 69.8C576.4 69.7 553.3 62 533.3 62C522.3 62 517.8 64.3 516.4 65.3C509.4 70.2 496.4 79.3 518.7 123.7L560.3 206.8C585 256.1 588.7 303.8 570.5 341.1C555.7 371.7 527.3 392.6 490.5 400.1C477.3 402.8 463.9 404.2 450.6 404.2C373.6 404.2 321.7 359.2 319.5 357.3C312.1 350.7 310.3 339.8 315.3 331.2C320.3 322.6 330.6 318.7 340.1 321.9C340.3 322 363.4 329.7 383.4 329.7C394.3 329.7 398.7 327.4 400.1 326.5C407.2 321.5 420.2 312.3 398 268L356.3 184.9C331.6 135.5 328 87.8 346.1 50.5C361 20 389.4 -1 426.2 -8.5C439.2 -11.1 452.7 -12.5 465.9 -12.5C543 -12.5 594.9 32.5 597.1 34.4C604.5 41 606.3 51.9 601.3 60.5C596.3 69 586 72.9 576.6 69.8z M437.5 550C437.5 492.4 484.1 445.8 541.7 445.8C599.2 445.8 645.8 492.4 645.8 550C645.8 607.5 599.2 654.1 541.7 654.1C484.1 654.1 437.5 607.5 437.5 550z"
          class="Normal"
          transform="matrix(0.20402040951240177,0,0,-0.20402040951240177,-29.75432643683044,133.44974488109497)" />
</svg>