<?xml version="1.0" encoding="UTF-8" standalone="no"?>

<!-- ####################################################################

This file was generates automatically via the 
IconPacks.Browser (MIT-License). 

Visit https://github.com/MahApps/MahApps.Metro.IconPacks and 
https://github.com/MahApps/MahApps.Metro.IconPacks/blob/develop/LICENSE 
for more information.
 
~~~~~~~~~~~~~~~~~~~~~~~~~~~~~~~~~~~~~~~~~~~~~~~~~~~~~~~~~~~~~~~~~~~~~~~~~~
 
Icon-Name: 			TerminalLinux
Iconpack:			Codicons
Iconpack-Homepage: 	https://github.com/microsoft/vscode-codicons
Iconpack-License:	https://github.com/microsoft/vscode-codicons/blob/main/LICENSE

#####################################################################-->


<svg xmlns="http://www.w3.org/2000/svg"
     width="128"
     height="128">
    <path d="M166.0125 60.55A10.5 10.5 0 0 0 170.7 56.8375C171.75 55.275 172.4875 53.3875 172.95 51.175C173.2 49.875 173.5 48.675 173.825 47.55A22.15 22.15 0 0 1 176.5625 41.6C177.15 40.6875 177.9375 39.6875 178.9125 38.575C179.75 37.6625 180.5 36.4875 181.1625 35.0625A9.9125 9.9125 0 0 0 182.125 30.9625A6.125 6.125 0 0 0 180.9625 27.15A11.8 11.8 0 0 0 178.025 24.4125C176.525 23.375 174.9625 22.4625 173.3375 21.675C171.7125 20.9 170.0875 20.0875 168.4625 19.2375A45.3 45.3 0 0 1 161.525 15.1375C159.575 13.7 157.6125 11.8875 155.6625 9.6625A35.1875 35.1875 0 0 0 147.85 3.125A18.3875 18.3875 0 0 0 143.0625 0.975C141.4375 0.525 139.8125 0.225 138.1875 0.1C134.4125 0.1 131.2875 0.75 128.8125 2.05C126.3375 3.35 124.1875 5.725 122.3625 9.175C121.8375 10.1625 121.325 10.775 120.8 11.0375A9.675 9.675 0 0 1 118.2625 11.725L108.375 12.5C105.125 12.75 101.8125 12.8875 98.425 12.8875A53.5 53.5 0 0 1 90.025 12.2125C87.1625 11.75 84.325 11.2 81.525 10.55C80.95 10.425 80.3625 9.925 79.775 9.0875A21.25 21.25 0 0 0 77.325 6.25A13.825 13.825 0 0 0 73.1375 3.5125A18.4375 18.4375 0 0 0 66.2 2.25C64.05 2.25 61.7375 2.475 59.2625 2.925A22.75 22.75 0 0 0 52.625 5.175A44.725 44.725 0 0 1 40.7125 9.275C36.8 9.9875 32.675 10.65 28.3125 11.225A42.4 42.4 0 0 0 24.0125 12.0125A9.675 9.675 0 0 0 20.3875 13.675A8.8125 8.8125 0 0 0 17.9625 16.4125A9.75 9.75 0 0 0 16.975 20.8C16.975 22.825 17.2375 24.775 17.7625 26.6625C18.2875 28.5375 18.575 30.5375 18.6375 32.6125C18.6375 34.05 18.5375 35.45 18.35 36.8125A44.125 44.125 0 0 0 17.95 41.2125C17.95 44.525 18.7375 46.9625 20.3 48.5375C21.8625 50.1 24.1375 51.3375 27.1375 52.25A12.375 12.375 0 0 1 30.85 54.1A28.375 28.375 0 0 1 33.775 56.6375A23.25 23.25 0 0 1 36.3125 59.6625000000001C37.1 60.775 37.975 61.8875000000001 38.95 62.9875A1.425 1.425 0 0 1 39.25 63.8625C39.25 64.6500000000001 39.2125 65.4 39.15 66.1125L38.95 68.4625C38.95 72.8875000000001 39.6375 77.3375000000001 41 81.8375000000001C42.375 86.3375000000001 44.1625 90.7125000000001 46.375 95.0250000000001A113.5 113.5 0 0 0 53.8 107.4250000000001C56.525 111.3875000000001 59.2375 115.0750000000001 61.9 118.4625000000001A54.375 54.375 0 0 1 70.4 133.5000000000001C72.275 138.7000000000001 73.2625 144.3750000000001 73.325 150.5000000000001C73.325 153.0875000000001 73.2 155.6625000000001 72.9375 158.2000000000001A76.525 76.525 0 0 0 72.55 166.0125000000001C72.55 171.2250000000001 73.1375 175.9125000000001 74.3 180.0750000000001C75.475 184.2500000000001 77.3 187.8250000000001 79.775 190.8250000000001S85.475 196.0625000000001 89.4375 197.5625000000001C93.425 199.0625 98.175 199.875 103.7 200C110.2875 200 115.525 198.7 119.4375 196.0875C123.3375 193.4875 126.3375 190.075 128.4125 185.8375C130.5 181.6125 131.8375 176.8875 132.4125 171.675C133.0125 166.475 133.3375 161.2 133.4 155.8625V154.2C133.4 151.525 133.425 149.15 133.5 147.075A31.5875 31.5875 0 0 1 136.325 134.8625C137.2375 132.85 138.6 130.6625 140.425 128.325C143.55 124.2125 146.75 120.075 150 115.9125C153.25 111.75 156.2125 107.45 158.875 103.0375C161.55 98.6 163.7375 93.975 165.425 89.1625C167.125 84.3375 168 79.1375 168.0625 73.5375A41.25 41.25 0 0 0 166.0125 60.5375zM84.0875 162.3C84.9875 162.3 85.7375 162.075 86.3375 161.625A4.4625 4.4625 0 0 0 87.7 159.7625A10.625 10.625 0 0 0 88.375 157.425C88.5 156.6375 88.575 155.825 88.575 154.975A3.525 3.525 0 0 0 88.275 153.4125A3.375 3.375 0 0 0 87.4 152.3375L86.225 151.3625A9.95 9.95 0 0 1 85.0625 150.2A5.35 5.35 0 0 0 83.2 148.4375A26.6125 26.6125 0 0 1 80.95 146.975A16.375 16.375 0 0 1 79 145.3125A3.3 3.3 0 0 1 78.125 142.875C78.125 142.2875 78.4125 141.8 79 141.4125A8.8 8.8 0 0 0 82.325 137.6C82.975 136.1 83.7 134.6375 84.475 133.2C85.25 131.775 86.2625 130.575 87.5 129.5875C88.7375 128.6125 90.6625 128.125 93.25 128.125H93.85C96.45 128.25 98.925 128.9375 101.275 130.175C103.6125 131.4125 105.9625 132.7125 108.3 134.0875A7.9125 7.9125 0 0 0 109.575 134.6625A4.625 4.625 0 0 1 110.8375 135.35L117.9625 140.9125A11.575 11.575 0 0 1 118.2625 142.1875A34.375 34.375 0 0 1 118.4625 143.5625A2.95 2.95 0 0 1 117.9625 145.3125A5 5 0 0 1 116.8 146.4875A4.25 4.25 0 0 1 115.1375 147.1625A11.3625 11.3625 0 0 0 113.3875 147.6625A13.5375 13.5375 0 0 0 108.9875 149.4125A18.2125 18.2125 0 0 1 104.6875 151.3625C104.4375 151.4375 104.2375 151.625 104.1 151.95A12.2875 12.2875 0 0 0 103.7125 153.125A2.875 2.875 0 0 0 103.6125 154.4A1.575 1.575 0 0 1 103.5125 155.375C103.5125 156.15 103.5750000000001 156.9625 103.7125 157.8125A6.8875 6.8875 0 0 0 104.5875 160.25A5.2125 5.2125 0 0 0 106.15 162A5.1375 5.1375 0 0 0 108.6875 162.7C110.7125 162.7 112.175 161.95 113.0875 160.45C114 158.95 114.4875 157.325 114.5500000000001 155.575A4.9625 4.9625 0 0 0 114.0625000000001 153.325A4.7375 4.7375 0 0 1 113.5625000000001 151.175C113.5625000000001 150.65 113.7375000000001 150.3 114.0625000000001 150.1A3.25 3.25 0 0 1 115.3375000000001 149.7125C116.8375 149.7125 117.8000000000001 150.0625 118.2625000000001 150.775A6.6625 6.6625 0 0 1 119.0375 154C119.0375 155.5 118.9125 157.1625 118.6625000000001 158.9875A16.5 16.5 0 0 1 117.0875000000001 164.0625A12.1125 12.1125 0 0 1 114.0625000000001 167.975A7.175 7.175 0 0 1 109.2750000000001 169.525C105.9000000000001 169.525 103.4500000000001 168.6875 101.9500000000001 166.9875C100.4500000000001 165.3 99.675 162.7625 99.6125000000001 159.375C99.6125000000001 158.4 99.675 157.425 99.8 156.45C99.925 155.4625 100 154.4875 100 153.5125C100 153.1875 99.9625000000001 153.025 99.9000000000001 153.025A2.725 2.725 0 0 0 99.3125 153.225A53.2875 53.2875 0 0 0 98.1500000000001 153.7125A9.675 9.675 0 0 1 96.675 154.2A6.425 6.425 0 0 1 94.1375000000001 154.3A12.5875 12.5875 0 0 0 92.5750000000001 154.2C91.6625 154.2 91.2 154.3625 91.2 154.6875C91.2 155.6625 91.1500000000001 156.9 91.0125000000001 158.4C90.8875000000001 159.9 90.5625 161.4 90.0375 162.9A12.4375 12.4375 0 0 1 88.0875 166.6C87.3 167.575 86.1375000000001 168.1 84.5750000000001 168.1625A4.0375 4.0375 0 0 1 81.7375 167.0875A11.3125 11.3125 0 0 1 79.6875 164.55A8 8 0 0 1 78.6125 161.225A67.5 67.5 0 0 0 78.2250000000001 158.1A18.2375 18.2375 0 0 1 79.1000000000001 153.025C79.425 151.9875 79.7875000000001 151.075 80.1750000000001 150.2875C80.5625 149.5125 81.0250000000001 149.125 81.5500000000001 149.125C81.8625000000001 149.125 82.3000000000001 149.35 82.8125000000001 149.8C83.3375000000001 150.2625 83.6000000000001 150.675 83.6000000000001 151.075C83.6000000000001 151.275 83.5000000000001 151.4 83.3000000000001 151.4625A1.8375 1.8375 0 0 1 82.7125000000001 151.5625C82.2625000000001 151.5625 81.8625000000001 151.7875 81.5375000000001 152.25A5.85 5.85 0 0 0 80.7625000000001 153.8125A64.3 64.3 0 0 0 80.1750000000001 155.6625A7.05 7.05 0 0 0 80.8625000000001 160.6375C81.4500000000001 161.6875 82.5250000000001 162.2375 84.0875000000001 162.3zM62.7875 10.25C64.35 10.25 65.8875 10.375 67.3875 10.65A12.125 12.125 0 0 1 71.5875 12.2125A7.675 7.675 0 0 1 74.5125 15.2375A11.7875 11.7875 0 0 1 75.6875 19.925A10.2 10.2 0 0 1 75.1 23.3375A12.0375 12.0375 0 0 1 73.4375 26.4625A34.5375 34.5375 0 0 1 70.9 29.975A34.5375 34.5375 0 0 0 68.3625 33.5A786.6249999999999 786.6249999999999 0 0 0 64.7375 38.875C63.575 40.625 62.4 42.475 61.2375 44.4375A101.55 101.55 0 0 0 58.3 49.5125A33.075 33.075 0 0 1 54.975 54.4875A15.0375 15.0375 0 0 1 52.25 57.125A5.8625 5.8625 0 0 1 48.625 58.3A5.45 5.45 0 0 1 44.925 56.925A28.25 28.25 0 0 1 41.7 53.6125A40.5125 40.5125 0 0 0 37.9875 49.8C36.6125 48.5625 34.8625 47.5875 32.7125 46.875A9.3 9.3 0 0 1 28.8125 44.725C27.9 43.8125 27.4375 42.4125 27.4375 40.525C27.4375 39.225 27.5375 37.925 27.7375 36.625C27.925 35.325 28.0625 34.0125 28.125 32.7125C28.125 30.9625 27.875 29.3 27.3375 27.7375A14.4625 14.4625 0 0 1 26.5625 23.15C26.5625 21.3875 27.1875 20.15 28.4125 19.4375C29.6625 18.7125 31.05 18.225 32.6125 17.975C34.575 17.6375 36.425 17.3875 38.1875 17.1875C39.9375 16.9875 41.6625 16.6875 43.3625 16.3125C45.05 15.9125 46.7375 15.5 48.4375 15.0375C50.125 14.5875 51.925 13.8625 53.8125 12.8875C54.1875 12.7 54.7875 12.4624999999999 55.5625 12.2124999999999L58.2 11.3374999999999C59.175 11 60.0875 10.7375 60.9375 10.55A9.2625 9.2625 0 0 1 62.7875 10.25zM98.5375 21.975C100.3625 21.975 102.3125 22.1625 104.4 22.5625A44.25 44.25 0 0 1 116.6 26.7625A32.375 32.375 0 0 1 121.675 29.975A2.775 2.775 0 0 1 122.075 30.5625A3.8125 3.8125 0 0 1 122.3625 31.35V31.45C122.75 32.875 123.075 34.45 123.3375 36.1375A107.875 107.875 0 0 1 124.025 41.3125A112.25 112.25 0 0 0 124.7125 46.4875C124.9625 48.175 125.2 49.8375 125.3875 51.4625C125.65 53.2125 125.975 54.9125 126.3625 56.5375C126.7625 58.1625 127.275 59.7 127.925 61.1375A12.875 12.875 0 0 0 130.5625 64.9375A19.25 19.25 0 0 0 134.8625 68.0625V68.2625L134.7625 68.55A3.625 3.625 0 0 0 135.35 70.4125A17.5 17.5 0 0 0 136.8125 72.4625A7.275 7.275 0 0 0 138.675 74.125A11.825 11.825 0 0 0 140.725 75.1A122.9625 122.9625 0 0 1 139.45 79.7875A61.725 61.725 0 0 0 138.275 84.475A89.075 89.075 0 0 1 137.1125 90.425A36.925 36.925 0 0 1 135.7375 94.925A16.4625 16.4625 0 0 1 133.4875 98.925C132.525 100.225 131.3125 101.8 129.8875 103.6125A14.8625 14.8625 0 0 0 128.4125 105.5625A6.9375 6.9375 0 0 0 127.8375 108.0125A27.575 27.575 0 0 1 127.25 110.55A118.5 118.5 0 0 1 124.225 119.925A36.375 36.375 0 0 1 122.075 124.7125A48.375 48.375 0 0 1 119.925 128.325C119.275 129.3 118.5875 129.7875 117.875 129.7875C116.3125 129.7875 114.45 129.1625 112.3 127.925C110.1625 126.6875 107.875 125.325 105.475 123.825C103.0625 122.325 100.725 120.925 98.4375 119.625C96.1625 118.325 94.1125 117.7125 92.2875 117.775A8.75 8.75 0 0 0 86.9125 119.625A27.95 27.95 0 0 0 82.4125 123.925C81.05 125.55 79.9125 126.95 79 128.125C78.0875 129.3 77.4125 129.95 76.95 130.075C76.4375 130.075 76.1375 129.6875 76.075 128.9125A32 32 0 0 1 75.975 126.275V124.6125C75.975 124.2125 75.9125 123.9625 75.775 123.825C75.0625 122.325 74.275 120.8625 73.4375 119.4375C72.5875 118 71.75 116.5375 70.9 115.0375A20.1375 20.1375 0 0 1 68.1625 105.5625C68.1625 104.5875 68.225 103.6125 68.3625 102.6375C68.4875 101.6625 68.8125 100.7125 69.3375 99.8L69.1375 99.425A16.375 16.375 0 0 0 67.475 97.4625A13.4 13.4 0 0 1 65.825 95.4125A34.95 34.95 0 0 1 60.7375 83.7875C59.7625 79.625 59.2375 75.3875 59.175 71.1C59.175 69.9875 59.25 68.8749999999999 59.375 67.775C59.5 66.6625 59.575 65.5625 59.575 64.45A6.575 6.575 0 0 0 59.475 63.375A6.5625 6.5625 0 0 1 59.375 62.3A9.375 9.375 0 0 0 63.2875 60.9374999999999C64.7875 60.0875 66.4125 59.0125 68.1625 57.7125C69.9125 56.4125 71.5875 54.9125 73.15 53.2125C74.7125 51.525 76.2 49.875 77.6375 48.2375C79.075 46.6125 80.1125 44.9875 80.7625 43.3625C81.4125 41.7375 81.8375 40.4 82.025 39.3625A5.55 5.55 0 0 0 80.4625 35.25A11.9375 11.9375 0 0 0 76.5625 32.7125C77.675 30.7625 79.0375 29.1 80.6625 27.7375C82.2875 26.3625 84.05 25.2625 85.9375 24.4125C87.825 23.5625 89.875 22.95 92.0875 22.5625C94.3 22.1625 96.4625 21.975 98.5375 21.975zM137.7 8.1C139.0625 8.1 140.4 8.3 141.7 8.6875A20.625 20.625 0 0 1 147.2625 11.225C148.9625 12.3375 150.5125 13.7 151.95 15.3375A38.375 38.375 0 0 0 164.1625 24.7125L167.3875 26.175A27.25 27.25 0 0 1 170.6 27.8375A12.025 12.025 0 0 1 172.6625 29.4875A3.2 3.2 0 0 1 173.6375 31.8375000000001A3.6875 3.6875 0 0 1 173.3375 33.3000000000001A7.25 7.25 0 0 1 172.4625 34.7625000000001A64.2 64.2 0 0 0 169.925 38.5750000000001A24.725 24.725 0 0 0 168.0625 42.2875000000001L166.5 46.1875000000001A31.975 31.975 0 0 0 165.125 50.5875000000001A3.5 3.5 0 0 1 164.45 51.8500000000001A6.625 6.625 0 0 1 158.7 54.7875000000001A6.6625 6.6625 0 0 1 155.375 53.9125000000001L152.05 52.0500000000001A91.6875 91.6875 0 0 0 148.5375 50.2000000000001A8.2 8.2 0 0 0 144.825 49.3250000000001A5.1375 5.1375 0 0 0 141.5999999999999 50.2875000000001A7.95 7.95 0 0 0 139.4499999999999 52.9250000000001A27.725 27.725 0 0 0 137.9874999999999 56.1500000000001L136.8125 59.3750000000001A15.75 15.75 0 0 0 135.0625 57.0250000000001A8.325 8.325 0 0 1 133.5 54.4875000000001C132.6499999999999 52.5375000000001 132.125 50.3625000000001 131.9375 47.9500000000001C131.6124999999999 44.1750000000001 131.1874999999999 40.5000000000001 130.6624999999999 36.9125000000001A58.75 58.75 0 0 0 128.0374999999999 26.1625000000001A23.925 23.925 0 0 1 127.2499999999999 22.7500000000001A36 36 0 0 1 126.8499999999999 19.1375000000001C126.8499999999999 15.9500000000001 127.8374999999999 13.3125000000001 129.7874999999999 11.2250000000001C131.7374999999999 9.1500000000001 134.3749999999999 8.1000000000001 137.6999999999999 8.1000000000001z"
          class="Normal"
          transform="matrix(0.6403201600848132,0,0,-0.6403201600848132,0.2550977632504387,128.06403201696264)" />
</svg>