<?xml version="1.0" encoding="UTF-8" standalone="no"?>

<!-- ####################################################################

This file was generates automatically via the 
IconPacks.Browser (MIT-License). 

Visit https://github.com/MahApps/MahApps.Metro.IconPacks and 
https://github.com/MahApps/MahApps.Metro.IconPacks/blob/develop/LICENSE 
for more information.
 
~~~~~~~~~~~~~~~~~~~~~~~~~~~~~~~~~~~~~~~~~~~~~~~~~~~~~~~~~~~~~~~~~~~~~~~~~~
 
Icon-Name: 			List
Iconpack:			BootstrapIcons
Iconpack-Homepage: 	https://icons.getbootstrap.com/
Iconpack-License:	https://github.com/twbs/icons?tab=MIT-1-ov-file#readme

#####################################################################-->


<svg xmlns="http://www.w3.org/2000/svg"
     width="48"
     height="48">
    <path d="M46.875 75A9.375 9.375 0 0 0 56.25 84.375H243.75A9.375 9.375 0 0 0 243.75 65.625H56.25A9.375 9.375 0 0 0 46.875 75M46.875 150A9.375 9.375 0 0 0 56.25 159.375H243.75A9.375 9.375 0 0 0 243.75 140.625H56.25A9.375 9.375 0 0 0 46.875 150M46.875 225A9.375 9.375 0 0 0 56.25 234.375H243.75A9.375 9.375 0 0 0 243.75 215.625H56.25A9.375 9.375 0 0 0 46.875 225"
          class="Normal"
          transform="matrix(0.23272727272727273,0,0,-0.23272727272727273,-10.909090909090908,58.90909090909091)" />
</svg>