<?xml version="1.0" encoding="UTF-8" standalone="no"?>

<!-- ####################################################################

This file was generates automatically via the 
IconPacks.Browser (MIT-License). 

Visit https://github.com/MahApps/MahApps.Metro.IconPacks and 
https://github.com/MahApps/MahApps.Metro.IconPacks/blob/develop/LICENSE 
for more information.
 
~~~~~~~~~~~~~~~~~~~~~~~~~~~~~~~~~~~~~~~~~~~~~~~~~~~~~~~~~~~~~~~~~~~~~~~~~~
 
Icon-Name: 			AddiOS
Iconpack:			Ionicons
Iconpack-Homepage: 	https://ionicons.com/
Iconpack-License:	https://github.com/ionic-team/ionicons/blob/master/LICENSE

#####################################################################-->


<svg xmlns="http://www.w3.org/2000/svg"
     width="48"
     height="48">
    <path d="M368.5 240H272v-96.5c0-8.8-7.2-16-16-16s-16 7.2-16 16V240h-96.5c-8.8 0-16 7.2-16 16 0 4.4 1.8 8.4 4.7 11.3 2.9 2.9 6.9 4.7 11.3 4.7H240v96.5c0 4.4 1.8 8.4 4.7 11.3 2.9 2.9 6.9 4.7 11.3 4.7 8.8 0 16-7.2 16-16V272h96.5c8.8 0 16-7.2 16-16s-7.2-16-16-16z"
          class="Normal"
          transform="matrix(0.1867704280155642,0,0,0.1867704280155642,-23.813229571984436,-23.813229571984436)" />
</svg>