<?xml version="1.0" encoding="UTF-8" standalone="no"?>

<!-- ####################################################################

This file was generates automatically via the 
IconPacks.Browser (MIT-License). 

Visit https://github.com/MahApps/MahApps.Metro.IconPacks and 
https://github.com/MahApps/MahApps.Metro.IconPacks/blob/develop/LICENSE 
for more information.
 
~~~~~~~~~~~~~~~~~~~~~~~~~~~~~~~~~~~~~~~~~~~~~~~~~~~~~~~~~~~~~~~~~~~~~~~~~~
 
Icon-Name: 			MoveRight
Iconpack:			Lucide
Iconpack-Homepage: 	https://github.com/lucide-icons/lucide
Iconpack-License:	https://github.com/lucide-icons/lucide?tab=ISC-1-ov-file#readme

#####################################################################-->


<svg xmlns="http://www.w3.org/2000/svg"
     width="48"
     height="48">
    <path d="M742.7916666666667 707.3333333333334C733.7916666666666 705.875 726.9583333333333 702.1666666666667 719.875 694.875C709.0416666666666 683.75 705.7499999999999 667.0416666666667 711.375 651.625C713.8749999999999 644.875 717.4166666666666 641 764.4999999999999 593.75C792.2916666666666 565.875 814.9999999999999 542.6666666666666 814.9999999999999 542.1666666666667C814.9999999999999 541.6666666666667 647.7916666666666 541.125 443.4583333333333 540.9583333333334L71.875 540.625L65.6666666666667 537.5833333333333C45.4166666666667 527.625 36.2916666666667 503.2083333333334 45.3333333333333 483.4166666666667C49.7083333333333 473.875 59.1666666666667 464.7083333333334 68.1666666666667 461.3333333333334L75.0833333333333 458.75L445.0416666666667 458.75C648.5416666666666 458.75 814.9999999999999 458.3333333333334 814.9999999999999 457.8333333333334C814.9999999999999 457.3333333333334 792.2916666666666 434.125 764.4999999999999 406.25C717.4166666666666 359 713.8749999999999 355.125 711.375 348.3750000000001C705.7083333333334 332.8333333333334 709.0416666666666 316.25 720.0833333333333 304.9166666666668C728.7499999999999 296 738 292.0416666666668 750 292.0416666666668C768.3333333333334 292.0416666666668 763.2083333333333 287.75 862.2499999999999 386.625C914.5833333333331 438.9166666666668 951.3333333333331 476.5416666666666 953.125 479.7916666666667C959.7083333333334 491.5 959.7083333333334 508.5000000000001 953.125 520.2083333333333C948.8749999999998 527.7916666666667 775.9583333333334 700.2083333333333 769.3333333333333 703.5C764.8333333333334 705.75 761.8333333333333 706.5416666666667 751.875 708C750.5 708.2083333333334 746.4166666666667 707.9166666666667 742.7916666666667 707.3333333333334"
          class="Normal"
          transform="matrix(0.05238908056370712,0,0,-0.05238908056370712,-2.192013497566651,50.196673064857464)" />
</svg>