<?xml version="1.0" encoding="UTF-8" standalone="no"?>

<!-- ####################################################################

This file was generates automatically via the 
IconPacks.Browser (MIT-License). 

Visit https://github.com/MahApps/MahApps.Metro.IconPacks and 
https://github.com/MahApps/MahApps.Metro.IconPacks/blob/develop/LICENSE 
for more information.
 
~~~~~~~~~~~~~~~~~~~~~~~~~~~~~~~~~~~~~~~~~~~~~~~~~~~~~~~~~~~~~~~~~~~~~~~~~~
 
Icon-Name: 			FloppyDiskBold
Iconpack:			PhosphorIcons
Iconpack-Homepage: 	https://phosphoricons.com/
Iconpack-License:	https://github.com/phosphor-icons/core?tab=MIT-1-ov-file#readme

#####################################################################-->


<svg xmlns="http://www.w3.org/2000/svg"
     width="48"
     height="48">
    <path d="M222.14,69.17,186.83,33.86A19.86,19.86,0,0,0,172.69,28H48A20,20,0,0,0,28,48V208a20,20,0,0,0,20,20H208a20,20,0,0,0,20-20V83.31A19.86,19.86,0,0,0,222.14,69.17ZM164,204H92V160h72Zm40,0H188V156a20,20,0,0,0-20-20H88a20,20,0,0,0-20,20v48H52V52H171l33,33ZM164,84a12,12,0,0,1-12,12H96a12,12,0,0,1,0-24h56A12,12,0,0,1,164,84Z"
          class="Normal"
          transform="matrix(0.23999990844730054,0,0,0.23999990844730054,-6.719997436524415,-6.719979583748023)" />
</svg>