<?xml version="1.0" encoding="UTF-8" standalone="no" ?>

<!-- ####################################################################

This file was generates automatically via the
IconPacks.Browser (MIT-License).

Visit https://github.com/MahApps/MahApps.Metro.IconPacks and
https://github.com/MahApps/MahApps.Metro.IconPacks/blob/develop/LICENSE
for more information.

~~~~~~~~~~~~~~~~~~~~~~~~~~~~~~~~~~~~~~~~~~~~~~~~~~~~~~~~~~~~~~~~~~~~~~~~~~

Icon-Name: 			Timer
Iconpack:			RadixIcons
Iconpack-Homepage: 	https://icons.modulz.app/
Iconpack-License:	https://github.com/modulz/radix-icons/blob/master/LICENSE

#####################################################################-->

<svg xmlns="http://www.w3.org/2000/svg"
     width="48"
     height="48">
    <path d="M149.9996 283.00048C144.4766 283.00048 139.9996 278.5234 139.9996 273.0004V229.5532C139.9996 224.0304 144.4766 219.5532 149.9996 219.5532C155.5224 219.5532 159.9996 224.0304 159.9996 229.5532V262.564C217.724 257.5024 263 209.0388 263 150.0004C263 87.592 212.408 37 149.9996 37C87.5914 37 36.9996 87.592 36.9996 150.0004C36.9996 177.8776 47.0814 203.3744 63.8098 223.082C67.3838 227.2924 66.8678 233.603 62.6572 237.177C58.4468 240.751 52.1362 240.235 48.5622 236.0246C28.881 212.8384 16.99952 182.7942 16.99952 150.0004C16.99952 76.546 76.5456 17 149.9996 17C223.454 17 283 76.546 283 150.0004C283 223.4544 223.454 283.00048 149.9996 283.00048zM134.8098 138.3856L84.4726 208.5526C83.0462 210.541 83.2692 213.2696 84.9996 215C86.7298 216.7304 89.4586 216.9534 91.4468 215.527L161.6138 165.1898C171.2454 158.2802 172.3812 144.3818 163.9996 136C155.6178 127.6182 141.7194 128.7542 134.8098 138.3856z"
          class="Normal"
          transform="matrix(0.18045079657616347,0,0,-0.18045079657616347,-3.0675761194194235,51.06766354179478)" />
</svg>