<?xml version="1.0" encoding="UTF-8" standalone="no"?>

<!-- ####################################################################

This file was generates automatically via the 
IconPacks.Browser (MIT-License). 

Visit https://github.com/MahApps/MahApps.Metro.IconPacks and 
https://github.com/MahApps/MahApps.Metro.IconPacks/blob/develop/LICENSE 
for more information.
 
~~~~~~~~~~~~~~~~~~~~~~~~~~~~~~~~~~~~~~~~~~~~~~~~~~~~~~~~~~~~~~~~~~~~~~~~~~
 
Icon-Name: 			PinSlash16
Iconpack:			Octicons
Iconpack-Homepage: 	https://github.com/primer/octicons
Iconpack-License:	https://github.com/primer/octicons?tab=MIT-1-ov-file#readme

#####################################################################-->


<svg xmlns="http://www.w3.org/2000/svg"
     width="48"
     height="48">
    <path d="M 1.125 0.375 C 0.91766687 0.375 0.74170298 0.4490366 0.59570312 0.59570312 C 0.44903661 0.74170298 0.375 0.91766687 0.375 1.125 C 0.375 1.3323331 0.4490366 1.508297 0.59570312 1.6542969 L 3.90625 4.9648438 L 3.3164062 5.1054688 C 2.6504069 5.2641353 2.2250623 5.6733652 2.0390625 6.3320312 C 1.852396 6.9906973 2.0003755 7.5628755 2.484375 8.046875 L 4.6894531 10.251953 L 0.72070312 14.220703 C 0.5740366 14.366703 0.5 14.542667 0.5 14.75 C 0.5 14.957333 0.57403661 15.133297 0.72070312 15.279297 C 0.86670298 15.425963 1.0426669 15.5 1.25 15.5 C 1.4573331 15.5 1.633297 15.425963 1.7792969 15.279297 L 5.7480469 11.310547 L 7.953125 13.515625 C 8.4371245 13.999625 9.0093027 14.147604 9.6679688 13.960938 C 10.326635 13.774938 10.735865 13.349593 10.894531 12.683594 L 11.035156 12.09375 L 14.345703 15.404297 C 14.491703 15.550963 14.667667 15.625 14.875 15.625 C 15.082333 15.625 15.258297 15.550963 15.404297 15.404297 C 15.550963 15.258297 15.625 15.082333 15.625 14.875 C 15.625 14.667667 15.550963 14.491703 15.404297 14.345703 L 1.6542969 0.59570312 C 1.508297 0.4490366 1.3323331 0.375 1.125 0.375 z M 10.183594 0.46875 C 10.044344 0.46183334 9.8998332 0.47138023 9.75 0.49804688 C 9.1506673 0.6053801 8.7240831 0.93561514 8.46875 1.4882812 L 7.7167969 3.1152344 C 7.6554636 3.2479009 7.5740364 3.3667032 7.4707031 3.4707031 C 7.3240366 3.616703 7.25 3.7926669 7.25 4 C 7.25 4.2073331 7.3240366 4.383297 7.4707031 4.5292969 C 7.616703 4.6759634 7.7926669 4.75 8 4.75 C 8.2073331 4.75 8.383297 4.6759634 8.5292969 4.5292969 C 8.7592966 4.2999638 8.9421251 4.0375205 9.078125 3.7421875 L 9.8300781 2.1152344 C 9.8667448 2.0365678 9.9283386 1.9899427 10.013672 1.9746094 C 10.099672 1.9592761 10.173042 1.9835886 10.234375 2.0449219 L 13.955078 5.765625 C 14.016411 5.8276249 14.040724 5.9009949 14.025391 5.9863281 C 14.010057 6.0716614 13.963432 6.1332552 13.884766 6.1699219 L 12.257812 6.921875 C 11.962479 7.0578749 11.700036 7.2407034 11.470703 7.4707031 C 11.324037 7.616703 11.25 7.7926669 11.25 8 C 11.25 8.2073331 11.324037 8.383297 11.470703 8.5292969 C 11.616703 8.6759634 11.792667 8.75 12 8.75 C 12.207333 8.75 12.383297 8.6759634 12.529297 8.5292969 C 12.633297 8.4259636 12.752099 8.3445364 12.884766 8.2832031 L 14.511719 7.53125 C 15.064385 7.2759169 15.39462 6.8493327 15.501953 6.25 C 15.60862 5.6506673 15.446291 5.1350777 15.015625 4.7050781 L 11.294922 0.984375 C 10.972422 0.66137532 10.601343 0.48949998 10.183594 0.46875 z M 5.1523438 6.2109375 L 9.7890625 10.847656 L 9.4355469 12.335938 C 9.4128802 12.431271 9.3537655 12.490911 9.2597656 12.517578 C 9.1657657 12.544245 9.0849583 12.522458 9.015625 12.453125 L 3.546875 6.984375 C 3.4775417 6.9150417 3.4557552 6.8342343 3.4824219 6.7402344 C 3.5090885 6.6462345 3.5687293 6.5871198 3.6640625 6.5644531 L 5.1523438 6.2109375 z "
          class="Normal"
          transform="matrix(3.1475409836065573,0,0,3.1475409836065573,-1.180327868852459,-1.180327868852459)" />
</svg>