<?xml version="1.0" encoding="UTF-8" standalone="no"?>

<!-- ####################################################################

This file was generates automatically via the 
IconPacks.Browser (MIT-License). 

Visit https://github.com/MahApps/MahApps.Metro.IconPacks and 
https://github.com/MahApps/MahApps.Metro.IconPacks/blob/develop/LICENSE 
for more information.
 
~~~~~~~~~~~~~~~~~~~~~~~~~~~~~~~~~~~~~~~~~~~~~~~~~~~~~~~~~~~~~~~~~~~~~~~~~~
 
Icon-Name: 			GitCommitHorizontal
Iconpack:			Lucide
Iconpack-Homepage: 	https://github.com/lucide-icons/lucide
Iconpack-License:	https://github.com/lucide-icons/lucide?tab=ISC-1-ov-file#readme

#####################################################################-->


<svg xmlns="http://www.w3.org/2000/svg"
     width="128"
     height="128">
    <path d="M473.7499999999999 664.4583333333333C410.7916666666667 653.1666666666667 362.2916666666667 612.1666666666667 342.4166666666667 553.4583333333333L338.2916666666667 541.2916666666667L225.7083333333333 540.9583333333334L113.125 540.625L106.875 537.3333333333334C99.0416666666667 533.1666666666667 91.2916666666667 525.4166666666667 87.375 517.75C84.8333333333333 512.75 84.375 510.0833333333334 84.375 500C84.375 489.9166666666667 84.8333333333333 487.2500000000001 87.4166666666667 482.2083333333334C91.25 474.625 99.625 466.25 107.2083333333333 462.4166666666667L113.125 459.375L225.7083333333333 459.0416666666666L338.2916666666667 458.7083333333334L342.4166666666667 446.5416666666668C358.5 398.9583333333334 395.375 361.0833333333334 442.2916666666667 343.8333333333334C463.5416666666666 336.0416666666667 473.4166666666666 334.4166666666668 500 334.4166666666668C526.5833333333333 334.4166666666668 536.4583333333333 336.0416666666667 557.7083333333333 343.8333333333334C604.6249999999999 361.0833333333334 641.5 398.9583333333334 657.5833333333333 446.5416666666668L661.7083333333333 458.7083333333334L774.2916666666665 459.0416666666666L886.875 459.375L892.7916666666666 462.4166666666667C900.375 466.25 908.7499999999998 474.625 912.5833333333334 482.2083333333334C915.1666666666666 487.2500000000001 915.625 489.9166666666667 915.625 500C915.625 510.0833333333334 915.1666666666666 512.75 912.6249999999998 517.75C908.7083333333334 525.4166666666667 900.9583333333334 533.1666666666667 893.1249999999999 537.3333333333334L886.875 540.625L774.2916666666665 540.9583333333334L661.7083333333333 541.2916666666667L657.5833333333333 553.4583333333333C638.7083333333334 609.2916666666667 592.4166666666666 650.25 533.75 663.125C521 665.9583333333334 486.2499999999999 666.7083333333334 473.7499999999999 664.4583333333333M520.9583333333333 580.5416666666667C548.25 574.4166666666667 574.25 548.375 580.6666666666666 520.5416666666667C583.2083333333333 509.7083333333334 583.2083333333333 490.3750000000001 580.7083333333333 479.625C574.25 451.7083333333334 549.9583333333333 427.0833333333334 521.1666666666666 419.25C510.3333333333333 416.2916666666668 489.6666666666667 416.2916666666668 478.7916666666666 419.25C449.9583333333333 427.125 425.75 451.6666666666667 419.2916666666667 479.625C416.7916666666667 490.3750000000001 416.7916666666667 509.7083333333334 419.3333333333333 520.5416666666667C424.4583333333333 542.7083333333334 441.75 563.9166666666667 463.7916666666666 575C479.6666666666667 583.0416666666667 500.6666666666666 585.0416666666667 520.9583333333333 580.5416666666667"
          class="Normal"
          transform="matrix(0.15398496240601503,0,0,-0.15398496240601503,-12.992481203007518,141.00738956766918)" />
</svg>