<svg xmlns="http://www.w3.org/2000/svg" viewBox="0 0 16 16">
	<path class="Normal-01" d="M12.5,2V14l-4-3.5h-4V6.581L6.391,5.5H8.5Z" />
	<path class="Normal-01" d="M14.5,8A2,2,0,0,1,13,9.929V6.071A2,2,0,0,1,14.5,8Z" />
	<path class="Normal" d="M15,8a2.5,2.5,0,0,1-2,2.449V9.408a1.491,1.491,0,0,0,0-2.816V5.551A2.5,2.5,0,0,1,15,8Z" />
	<path class="Normal" d="M12.171,1.624,8.313,5H7.266L5.516,6H8v4H5V6.3L4,6.866V10.5l.5.5H8.313l3.858,3.376L13,14V2ZM12,12.9,9,10.273V5.727L12,3.1Z" />
	<path class="Green" d="M0,0,7,4,0,8Z" />
</svg>
