<svg xmlns="http://www.w3.org/2000/svg" viewBox="0 0 16 16">
    <path class="Normal-01" d="M4.5,9a1.5,1.5,0,0,1-3,0V8A6.5,6.5,0,1,1,8,14.5H7.5V9a1.5,1.5,0,0,0-3,0" />
    <path class="Normal" d="M8,1A7,7,0,0,1,8,15H7.5L7,14.5V9A1,1,0,0,0,5,9,2,2,0,0,1,1,9V8A7.008,7.008,0,0,1,8,1ZM8,14A6,6,0,1,0,2,8V9A1,1,0,0,0,4,9,2,2,0,0,1,8,9Z" />
    <path class="Orange" d="M8.983,3.814a1,1,0,1,1-1.169-.8A1,1,0,0,1,8.983,3.814Z" />
    <path class="Red" d="M5.563,4.674a1,1,0,1,1-1.389.263A1,1,0,0,1,5.563,4.674Z" />
    <path class="Normal" d="M9.437,11.826a1,1,0,1,1,1.389-.263A1,1,0,0,1,9.437,11.826Z" />
    <path class="Blue" d="M12.186,9.483a1,1,0,1,1,.8-1.169A1,1,0,0,1,12.186,9.483Z" />
    <path class="Green" d="M11.826,6.063a1,1,0,1,1-.263-1.389A1,1,0,0,1,11.826,6.063Z" />
</svg>
