<svg xmlns="http://www.w3.org/2000/svg" viewBox="0 0 16 16">
	<path class="Normal-01" d="M14.42,6.385a4.067,4.067,0,0,1-3.947,3.2A3.937,3.937,0,0,1,9.02,9.3L8,10.5H6.52v2h-2v2h-3V12.2L6.72,7a3.854,3.854,0,0,1-.28-1.53,4.035,4.035,0,1,1,7.978.911Z" />
	<path class="Normal" d="M14.812,4.251a4.574,4.574,0,0,0-1.138-1.92A4.532,4.532,0,0,0,6.14,6.871L1.166,11.844,1.02,12.2V14.5l.5.5h3l.5-.5V13h1.5l.5-.5V11H8l.379-.175.8-.937a4.467,4.467,0,0,0,1.293.189,4.534,4.534,0,0,0,4.345-5.83Zm-.88,2.04,0-.005a3.566,3.566,0,0,1-3.457,2.8A3.468,3.468,0,0,1,9.2,8.848l-.561.14L7.765,10H6.52l-.5.5V12H4.52l-.5.5V14h-2V12.4l5.049-5.05.11-.542a3.4,3.4,0,0,1-.239-1.33,3.536,3.536,0,1,1,6.992.809Z" />
	<path class="Normal" d="M12.02,5a1,1,0,0,1-.617.924,1,1,0,0,1-1.09-.217A1,1,0,1,1,12.02,5Z" />
</svg>
