<svg xmlns="http://www.w3.org/2000/svg" viewBox="0 0 16 16">
    <path class="Blue" d="M9.4,9.01l1.313-.263a.678.678,0,0,0,.532-.532L11.51,6.9a.5.5,0,0,1,.98,0l.263,1.313a.678.678,0,0,0,.532.532L14.6,9.01a.5.5,0,0,1,0,.98l-1.313.263a.678.678,0,0,0-.532.532L12.49,12.1a.5.5,0,0,1-.98,0l-.263-1.313a.678.678,0,0,0-.532-.532L9.4,9.99a.5.5,0,0,1,0-.98Z" />
    <path class="Blue" d="M10.5,5a.5.5,0,0,1-.5.5l-1.943.324A1.5,1.5,0,0,0,6.824,7.057L6.5,9a.5.5,0,0,1-1,0L5.176,7.057A1.5,1.5,0,0,0,3.943,5.824L2,5.5a.5.5,0,0,1,0-1l1.943-.324A1.5,1.5,0,0,0,5.176,2.943L5.5,1a.5.5,0,0,1,1,0l.324,1.943A1.5,1.5,0,0,0,8.057,4.176L10,4.5A.5.5,0,0,1,10.5,5Z" />
    <path class="Blue" d="M5.4,12.01l.786-.157a.212.212,0,0,0,.165-.163L6.51,10.9a.5.5,0,0,1,.98,0l.157.786a.212.212,0,0,0,.163.165l.788.157a.5.5,0,0,1,0,.98l-.786.157a.212.212,0,0,0-.165.163L7.49,14.1a.5.5,0,0,1-.98,0l-.157-.786a.212.212,0,0,0-.163-.165L5.4,12.99a.5.5,0,0,1,0-.98Z" />
</svg>
