<?xml version="1.0" encoding="UTF-8" standalone="no" ?>

<!-- ####################################################################

This file was generates automatically via the
IconPacks.Browser (MIT-License).

Visit https://github.com/MahApps/MahApps.Metro.IconPacks and
https://github.com/MahApps/MahApps.Metro.IconPacks/blob/develop/LICENSE
for more information.

~~~~~~~~~~~~~~~~~~~~~~~~~~~~~~~~~~~~~~~~~~~~~~~~~~~~~~~~~~~~~~~~~~~~~~~~~~

Icon-Name: 			FilePdf
Iconpack:			Coolicons
Iconpack-Homepage: 	https://github.com/krystonschwarze/coolicons
Iconpack-License:	https://github.com/krystonschwarze/coolicons#license

#####################################################################-->

<svg xmlns="http://www.w3.org/2000/svg"
     width="48"
     height="48">
    <path d="M768-0h-512c-47.128 0-85.333 38.204-85.333 85.333v682.667c0 47.128 38.205 85.333 85.333 85.333h298.667c0.384 0.050 0.768 0.050 1.152 0h0.256c0.401-0.126 0.819-0.212 1.237-0.256 3.763-0.241 7.479-0.972 11.051-2.176h1.792c0.789-0.551 1.527-1.165 2.219-1.835 4.646-2.066 8.883-4.957 12.501-8.533l256-256c3.575-3.617 6.468-7.853 8.533-12.501 0.384-0.939 0.683-1.835 0.981-2.816l0.427-1.195c1.19-3.558 1.894-7.261 2.091-11.008 0.038-0.425 0.137-0.842 0.299-1.237v-0.256c0.068-0.279 0.111-0.565 0.128-0.853v-469.334c0-22.63-8.99-44.335-24.994-60.339s-37.709-24.994-60.339-24.994zM615.424 341.334v-213.333h40.107v87.040h62.293v35.755h-62.293v54.656h69.803v35.883h-109.909zM457.557 341.334v-213.333h51.456c21.585-1.062 42.487 7.727 56.832 23.893 14.716 18.778 22.089 42.274 20.736 66.091v34.56c0.99 23.569-6.588 46.699-21.333 65.109-13.884 15.804-34.15 24.503-55.168 23.68h-52.523zM298.667 341.334v-213.333h40.107v75.051h26.709c17.836-0.986 35.256 5.615 47.957 18.176 12.121 13.551 18.406 31.334 17.493 49.493 0.794 18.594-5.489 36.796-17.579 50.944-11.959 13.261-29.223 20.476-47.061 19.669h-67.627zM554.667 768.001v-213.333h213.333l-213.333 213.333zM509.696 163.755h-12.032v141.696h14.592c10.364 0.61 20.326-4.079 26.453-12.459 6.255-12.941 8.934-27.315 7.765-41.643v-37.077c0.939-13.641-2.022-27.268-8.533-39.296-6.993-8.162-17.557-12.361-28.245-11.221zM366.293 238.934h-27.563v66.517h27.947c6.977-0.077 13.424-3.733 17.067-9.685 4.617-7.62 6.847-16.444 6.4-25.344 0.535-8.299-1.668-16.542-6.272-23.467-4.244-5.325-10.775-8.307-17.579-8.021z"
          style="fill:#E2564C;"
          transform="matrix(0.056247551249776304,0,0,-0.056247551249776304,-4.798774133644862,47.99999999999999)" />
</svg>