<svg xmlns="http://www.w3.org/2000/svg" viewBox="0 0 16 16">
	<path class="Normal" d="M15.854,15.146l-.708.708-3.422-3.423a6.742,6.742,0,0,0,.707-.707Z" />
	<path class="Normal-01" d="M13.5,7.5a6,6,0,1,1-6-6A6,6,0,0,1,13.5,7.5Z" />
	<path class="Normal" d="M7.5,1A6.5,6.5,0,1,0,14,7.5,6.508,6.508,0,0,0,7.5,1Zm0,12A5.5,5.5,0,1,1,13,7.5,5.507,5.507,0,0,1,7.5,13Z" />
	<path class="Blue" d="M9.354,6.6,8.646,5.9l1.5-1.5.708.708ZM4.146,5.1l1.5,1.5L6.354,5.9l-1.5-1.5Zm4.5,4,1.5,1.5.708-.708-1.5-1.5Zm-4.5.792.708.708,1.5-1.5L5.646,8.4Z" />
</svg>
