<svg xmlns="http://www.w3.org/2000/svg" viewBox="0 0 16 16">
	<path class="Normal-01" d="M6.5,3.5a2,2,0,1,1-2-2A2,2,0,0,1,6.5,3.5Zm0,10a2,2,0,1,1-2-2A2,2,0,0,1,6.5,13.5Zm7-8a2,2,0,1,1-2-2A2,2,0,0,1,13.5,5.5Z" />
	<path class="Normal" d="M12,7.5A2.5,2.5,0,0,1,9.5,10H7a2,2,0,0,0-2,2H4V5H5V9.78A2.981,2.981,0,0,1,7,9H9.5A1.5,1.5,0,0,0,11,7.5Z" />
	<path class="Normal" d="M4.5,1A2.5,2.5,0,1,0,7,3.5,2.5,2.5,0,0,0,4.5,1Zm0,4A1.5,1.5,0,1,1,6,3.5,1.5,1.5,0,0,1,4.5,5Zm0,6A2.5,2.5,0,1,0,7,13.5,2.5,2.5,0,0,0,4.5,11Zm0,4A1.5,1.5,0,1,1,6,13.5,1.5,1.5,0,0,1,4.5,15Zm7-12A2.5,2.5,0,1,0,14,5.5,2.5,2.5,0,0,0,11.5,3Zm0,4A1.5,1.5,0,1,1,13,5.5,1.5,1.5,0,0,1,11.5,7Z" />
</svg>
