<svg xmlns="http://www.w3.org/2000/svg" viewBox="0 0 16 16">
	<path class="Normal" d="M8.5,9v1A5.5,5.5,0,0,1,4,7.652V10.5H3v-6H4A4.5,4.5,0,0,0,8.5,9Z" />
	<path class="Normal-01" d="M5.5,2.5a2,2,0,1,1-2-2A2,2,0,0,1,5.5,2.5Zm0,10a2,2,0,1,1-2-2A2,2,0,0,1,5.5,12.5Zm7-3a2,2,0,1,1-2-2A2,2,0,0,1,12.5,9.5Z" />
	<path class="Normal" d="M3.5,0A2.5,2.5,0,1,0,6,2.5,2.5,2.5,0,0,0,3.5,0Zm0,4A1.5,1.5,0,1,1,5,2.5,1.5,1.5,0,0,1,3.5,4Zm0,6A2.5,2.5,0,1,0,6,12.5,2.5,2.5,0,0,0,3.5,10Zm0,4A1.5,1.5,0,1,1,5,12.5,1.5,1.5,0,0,1,3.5,14Zm7-7A2.5,2.5,0,1,0,13,9.5,2.5,2.5,0,0,0,10.5,7Zm0,4A1.5,1.5,0,1,1,12,9.5,1.5,1.5,0,0,1,10.5,11Z" />
	<path class="Green" d="M15.854,10.854l-5,5h-.708l-3-3,.708-.708L10.5,14.793l4.646-4.647Z" />
</svg>
