<svg xmlns="http://www.w3.org/2000/svg" viewBox="0 0 16 16">
	<path class="Normal" d="M6,15H5V14H6Z" />
	<path class="Normal" d="M8,15H7V14H8Z" />
	<path class="Normal" d="M10,15H9V14h1Z" />
	<path class="Normal" d="M12,15H11V14h1Z" />
	<path class="Normal" d="M14,15H13V14h1Z" />
	<path class="Normal" d="M14,13H13V12h1Z" />
	<path class="Normal" d="M14,11H13V10h1Z" />
	<path class="Normal" d="M5.4,10.1,4,8.707V15H3V8.707L1.6,10.1.9,9.4l2.25-2.25h.708L6.1,9.4Z" />
	<path class="Normal" d="M14,5.5V9H13V5.5A1.5,1.5,0,0,0,11.5,4H8.645L9.916,5.271l-.707.708L7.084,3.854V3.146L9.209,1.021l.707.708L8.645,3H11.5A2.5,2.5,0,0,1,14,5.5Z" />
	<path class="Normal-01" d="M5.5,3.5a2,2,0,1,1-2-2A2,2,0,0,1,5.5,3.5Z" />
	<path class="Normal" d="M3.5,1A2.5,2.5,0,1,0,6,3.5,2.5,2.5,0,0,0,3.5,1Zm0,4A1.5,1.5,0,1,1,5,3.5,1.5,1.5,0,0,1,3.5,5Z" />
</svg>
